<mxfile host="Electron" modified="2024-03-27T03:26:10.021Z" agent="Mozilla/5.0 (Windows NT 10.0; Win64; x64) AppleWebKit/537.36 (KHTML, like Gecko) draw.io/23.0.2 Chrome/120.0.6099.109 Electron/28.1.0 Safari/537.36" etag="QhnOUHkEGCK4G6Sg9QXT" version="23.0.2" type="device">
  <diagram name="Page-1" id="kbDBzntbNOOyB9izjb_X">
    <mxGraphModel dx="7436" dy="4444" grid="1" gridSize="10" guides="1" tooltips="1" connect="1" arrows="1" fold="1" page="1" pageScale="1" pageWidth="850" pageHeight="1100" math="0" shadow="0">
      <root>
        <mxCell id="0" />
        <mxCell id="1" parent="0" />
        <mxCell id="ts7k1Ihn8bTRgZbRFf7x-3" value="" style="whiteSpace=wrap;html=1;aspect=fixed;" parent="1" vertex="1">
          <mxGeometry x="190" y="130" width="430" height="430" as="geometry" />
        </mxCell>
        <mxCell id="ts7k1Ihn8bTRgZbRFf7x-4" value="" style="rounded=1;whiteSpace=wrap;html=1;" parent="1" vertex="1">
          <mxGeometry x="289.38" y="190" width="231.25" height="170" as="geometry" />
        </mxCell>
        <mxCell id="ts7k1Ihn8bTRgZbRFf7x-5" value="Login Page" style="text;html=1;align=center;verticalAlign=middle;resizable=0;points=[];autosize=1;strokeColor=none;fillColor=none;" parent="1" vertex="1">
          <mxGeometry x="190" y="88" width="80" height="30" as="geometry" />
        </mxCell>
        <mxCell id="ts7k1Ihn8bTRgZbRFf7x-6" value="Login" style="text;html=1;strokeColor=none;fillColor=none;align=center;verticalAlign=middle;whiteSpace=wrap;rounded=0;" parent="1" vertex="1">
          <mxGeometry x="375" y="210" width="60" height="30" as="geometry" />
        </mxCell>
        <mxCell id="ts7k1Ihn8bTRgZbRFf7x-8" value="&lt;font style=&quot;font-size: 8px;&quot;&gt;Username&lt;/font&gt;" style="rounded=1;whiteSpace=wrap;html=1;align=left;" parent="1" vertex="1">
          <mxGeometry x="320" y="255" width="170" height="15" as="geometry" />
        </mxCell>
        <mxCell id="ts7k1Ihn8bTRgZbRFf7x-9" value="&lt;font style=&quot;font-size: 8px;&quot;&gt;Password&lt;/font&gt;" style="rounded=1;whiteSpace=wrap;html=1;align=left;" parent="1" vertex="1">
          <mxGeometry x="320" y="277.5" width="170" height="15" as="geometry" />
        </mxCell>
        <mxCell id="ts7k1Ihn8bTRgZbRFf7x-36" style="edgeStyle=orthogonalEdgeStyle;rounded=0;orthogonalLoop=1;jettySize=auto;html=1;exitX=1;exitY=0.5;exitDx=0;exitDy=0;" parent="1" source="ts7k1Ihn8bTRgZbRFf7x-12" edge="1">
          <mxGeometry relative="1" as="geometry">
            <mxPoint x="540" y="710.0000000000002" as="targetPoint" />
          </mxGeometry>
        </mxCell>
        <mxCell id="ts7k1Ihn8bTRgZbRFf7x-12" value="&lt;font style=&quot;font-size: 9px;&quot;&gt;Login&lt;/font&gt;" style="rounded=1;whiteSpace=wrap;html=1;fillColor=#dae8fc;strokeColor=#6c8ebf;" parent="1" vertex="1">
          <mxGeometry x="375" y="310" width="60" height="20" as="geometry" />
        </mxCell>
        <mxCell id="ts7k1Ihn8bTRgZbRFf7x-30" style="edgeStyle=orthogonalEdgeStyle;rounded=0;orthogonalLoop=1;jettySize=auto;html=1;exitX=0;exitY=0.5;exitDx=0;exitDy=0;" parent="1" source="ts7k1Ihn8bTRgZbRFf7x-13" edge="1">
          <mxGeometry relative="1" as="geometry">
            <mxPoint x="-130.00000000000023" y="345.39130434782624" as="targetPoint" />
          </mxGeometry>
        </mxCell>
        <mxCell id="ts7k1Ihn8bTRgZbRFf7x-32" value="If User does not have an account" style="edgeLabel;html=1;align=center;verticalAlign=middle;resizable=0;points=[];" parent="ts7k1Ihn8bTRgZbRFf7x-30" vertex="1" connectable="0">
          <mxGeometry x="0.042" y="-1" relative="1" as="geometry">
            <mxPoint as="offset" />
          </mxGeometry>
        </mxCell>
        <mxCell id="ts7k1Ihn8bTRgZbRFf7x-13" value="&lt;font style=&quot;font-size: 6px;&quot;&gt;Don&#39;t have a account click here?&lt;/font&gt;" style="text;html=1;strokeColor=none;fillColor=none;align=left;verticalAlign=middle;whiteSpace=wrap;rounded=0;" parent="1" vertex="1">
          <mxGeometry x="300" y="330" width="190" height="30" as="geometry" />
        </mxCell>
        <mxCell id="ts7k1Ihn8bTRgZbRFf7x-18" value="" style="rounded=0;whiteSpace=wrap;html=1;" parent="1" vertex="1">
          <mxGeometry x="-570" y="118" width="435" height="430" as="geometry" />
        </mxCell>
        <mxCell id="ts7k1Ihn8bTRgZbRFf7x-19" value="Register Page" style="text;html=1;align=center;verticalAlign=middle;resizable=0;points=[];autosize=1;strokeColor=none;fillColor=none;" parent="1" vertex="1">
          <mxGeometry x="-570" y="80" width="100" height="30" as="geometry" />
        </mxCell>
        <mxCell id="ts7k1Ihn8bTRgZbRFf7x-20" value="" style="rounded=1;whiteSpace=wrap;html=1;" parent="1" vertex="1">
          <mxGeometry x="-470" y="180" width="242.19" height="260" as="geometry" />
        </mxCell>
        <mxCell id="ts7k1Ihn8bTRgZbRFf7x-21" value="&lt;font style=&quot;font-size: 8px;&quot;&gt;Username&lt;/font&gt;" style="rounded=1;whiteSpace=wrap;html=1;align=left;" parent="1" vertex="1">
          <mxGeometry x="-436.1" y="230" width="170" height="15" as="geometry" />
        </mxCell>
        <mxCell id="ts7k1Ihn8bTRgZbRFf7x-22" value="&lt;span style=&quot;font-size: 8px;&quot;&gt;Password&lt;/span&gt;" style="rounded=1;whiteSpace=wrap;html=1;align=left;" parent="1" vertex="1">
          <mxGeometry x="-437.5" y="345" width="170" height="15" as="geometry" />
        </mxCell>
        <mxCell id="ts7k1Ihn8bTRgZbRFf7x-23" value="&lt;span style=&quot;font-size: 8px;&quot;&gt;Confirm Password&lt;/span&gt;" style="rounded=1;whiteSpace=wrap;html=1;align=left;" parent="1" vertex="1">
          <mxGeometry x="-437.5" y="370" width="170" height="15" as="geometry" />
        </mxCell>
        <mxCell id="ts7k1Ihn8bTRgZbRFf7x-27" value="Register" style="text;html=1;strokeColor=none;fillColor=none;align=center;verticalAlign=middle;whiteSpace=wrap;rounded=0;" parent="1" vertex="1">
          <mxGeometry x="-390" y="200" width="60" height="30" as="geometry" />
        </mxCell>
        <mxCell id="ts7k1Ihn8bTRgZbRFf7x-31" style="edgeStyle=orthogonalEdgeStyle;rounded=0;orthogonalLoop=1;jettySize=auto;html=1;exitX=1;exitY=0.5;exitDx=0;exitDy=0;entryX=0.007;entryY=0.424;entryDx=0;entryDy=0;entryPerimeter=0;" parent="1" source="ts7k1Ihn8bTRgZbRFf7x-28" target="ts7k1Ihn8bTRgZbRFf7x-3" edge="1">
          <mxGeometry relative="1" as="geometry" />
        </mxCell>
        <mxCell id="ts7k1Ihn8bTRgZbRFf7x-33" value="Once the user registers it takes them back" style="edgeLabel;html=1;align=center;verticalAlign=middle;resizable=0;points=[];" parent="ts7k1Ihn8bTRgZbRFf7x-31" vertex="1" connectable="0">
          <mxGeometry x="0.0538" y="-3" relative="1" as="geometry">
            <mxPoint x="119" y="-5" as="offset" />
          </mxGeometry>
        </mxCell>
        <mxCell id="ts7k1Ihn8bTRgZbRFf7x-28" value="&lt;font size=&quot;1&quot;&gt;Register&lt;/font&gt;" style="rounded=1;whiteSpace=wrap;html=1;fillColor=#d5e8d4;strokeColor=#82b366;" parent="1" vertex="1">
          <mxGeometry x="-390" y="390" width="60" height="20" as="geometry" />
        </mxCell>
        <mxCell id="ts7k1Ihn8bTRgZbRFf7x-34" style="edgeStyle=orthogonalEdgeStyle;rounded=0;orthogonalLoop=1;jettySize=auto;html=1;exitX=1;exitY=0.5;exitDx=0;exitDy=0;entryX=-0.007;entryY=0.709;entryDx=0;entryDy=0;entryPerimeter=0;" parent="1" source="ts7k1Ihn8bTRgZbRFf7x-29" target="ts7k1Ihn8bTRgZbRFf7x-3" edge="1">
          <mxGeometry relative="1" as="geometry">
            <mxPoint x="-80" y="430" as="targetPoint" />
            <Array as="points">
              <mxPoint x="-110" y="355" />
              <mxPoint x="-110" y="430" />
              <mxPoint x="187" y="430" />
            </Array>
          </mxGeometry>
        </mxCell>
        <mxCell id="ts7k1Ihn8bTRgZbRFf7x-35" value="if the user already has an account" style="edgeLabel;html=1;align=center;verticalAlign=middle;resizable=0;points=[];" parent="ts7k1Ihn8bTRgZbRFf7x-34" vertex="1" connectable="0">
          <mxGeometry x="0.2895" y="2" relative="1" as="geometry">
            <mxPoint as="offset" />
          </mxGeometry>
        </mxCell>
        <mxCell id="ts7k1Ihn8bTRgZbRFf7x-29" value="&lt;font style=&quot;font-size: 6px;&quot;&gt;Already have a account click here?&lt;/font&gt;" style="text;html=1;strokeColor=none;fillColor=none;align=left;verticalAlign=middle;whiteSpace=wrap;rounded=0;" parent="1" vertex="1">
          <mxGeometry x="-410" y="410" width="190" height="30" as="geometry" />
        </mxCell>
        <mxCell id="ts7k1Ihn8bTRgZbRFf7x-57" value="" style="whiteSpace=wrap;html=1;aspect=fixed;" parent="1" vertex="1">
          <mxGeometry x="730" y="1240" width="430" height="430" as="geometry" />
        </mxCell>
        <mxCell id="ts7k1Ihn8bTRgZbRFf7x-58" value="" style="rounded=0;whiteSpace=wrap;html=1;fillColor=#3498db;strokeColor=#6c8ebf;" parent="1" vertex="1">
          <mxGeometry x="730" y="1240" width="430" height="40" as="geometry" />
        </mxCell>
        <mxCell id="ts7k1Ihn8bTRgZbRFf7x-59" value="&lt;font color=&quot;#fff7fe&quot;&gt;Capstone&lt;/font&gt;" style="text;html=1;strokeColor=none;fillColor=none;align=center;verticalAlign=middle;whiteSpace=wrap;rounded=0;" parent="1" vertex="1">
          <mxGeometry x="730" y="1245" width="60" height="30" as="geometry" />
        </mxCell>
        <mxCell id="ts7k1Ihn8bTRgZbRFf7x-60" value="&lt;font color=&quot;#ffffff&quot; style=&quot;font-size: 8px;&quot;&gt;Home&lt;/font&gt;" style="text;html=1;strokeColor=none;fillColor=none;align=center;verticalAlign=middle;whiteSpace=wrap;rounded=0;" parent="1" vertex="1">
          <mxGeometry x="800" y="1245" width="60" height="30" as="geometry" />
        </mxCell>
        <mxCell id="ts7k1Ihn8bTRgZbRFf7x-61" value="&lt;span style=&quot;font-size: 8px;&quot;&gt;&lt;font color=&quot;#fffafa&quot;&gt;Sources&lt;/font&gt;&lt;/span&gt;" style="text;html=1;strokeColor=none;fillColor=none;align=center;verticalAlign=middle;whiteSpace=wrap;rounded=0;" parent="1" vertex="1">
          <mxGeometry x="915" y="1245" width="60" height="30" as="geometry" />
        </mxCell>
        <mxCell id="ts7k1Ihn8bTRgZbRFf7x-63" value="&lt;font color=&quot;#ffffff&quot; style=&quot;font-size: 8px;&quot;&gt;Logout&lt;/font&gt;" style="text;html=1;strokeColor=none;fillColor=none;align=center;verticalAlign=middle;whiteSpace=wrap;rounded=0;" parent="1" vertex="1">
          <mxGeometry x="1080" y="1245" width="60" height="30" as="geometry" />
        </mxCell>
        <mxCell id="ts7k1Ihn8bTRgZbRFf7x-72" value="" style="rounded=0;whiteSpace=wrap;html=1;strokeWidth=3;" parent="1" vertex="1">
          <mxGeometry x="730" y="1315" width="287.5" height="310" as="geometry" />
        </mxCell>
        <mxCell id="ts7k1Ihn8bTRgZbRFf7x-73" value="{{Source Title}}" style="text;html=1;strokeColor=none;fillColor=none;align=center;verticalAlign=middle;whiteSpace=wrap;rounded=0;" parent="1" vertex="1">
          <mxGeometry x="730" y="1290" width="100" height="30" as="geometry" />
        </mxCell>
        <mxCell id="ts7k1Ihn8bTRgZbRFf7x-76" value="" style="rounded=0;whiteSpace=wrap;html=1;fillColor=#333;" parent="1" vertex="1">
          <mxGeometry x="1040" y="1280" width="120" height="390" as="geometry" />
        </mxCell>
        <mxCell id="ts7k1Ihn8bTRgZbRFf7x-78" value="&lt;font color=&quot;#ffffff&quot;&gt;Notes:&lt;/font&gt;" style="text;html=1;strokeColor=none;fillColor=none;align=center;verticalAlign=middle;whiteSpace=wrap;rounded=0;" parent="1" vertex="1">
          <mxGeometry x="1055" y="1287.5" width="60" height="30" as="geometry" />
        </mxCell>
        <mxCell id="ts7k1Ihn8bTRgZbRFf7x-98" value="" style="whiteSpace=wrap;html=1;aspect=fixed;" parent="1" vertex="1">
          <mxGeometry x="160" y="1245" width="430" height="430" as="geometry" />
        </mxCell>
        <mxCell id="ts7k1Ihn8bTRgZbRFf7x-99" value="" style="rounded=0;whiteSpace=wrap;html=1;fillColor=#3498db;strokeColor=#6c8ebf;" parent="1" vertex="1">
          <mxGeometry x="160" y="1245" width="430" height="40" as="geometry" />
        </mxCell>
        <mxCell id="ts7k1Ihn8bTRgZbRFf7x-100" value="&lt;font color=&quot;#fff7fe&quot;&gt;Capstone&lt;/font&gt;" style="text;html=1;strokeColor=none;fillColor=none;align=center;verticalAlign=middle;whiteSpace=wrap;rounded=0;" parent="1" vertex="1">
          <mxGeometry x="160" y="1250" width="60" height="30" as="geometry" />
        </mxCell>
        <mxCell id="ts7k1Ihn8bTRgZbRFf7x-101" value="&lt;font color=&quot;#ffffff&quot; style=&quot;font-size: 8px;&quot;&gt;Home&lt;/font&gt;" style="text;html=1;strokeColor=none;fillColor=none;align=center;verticalAlign=middle;whiteSpace=wrap;rounded=0;" parent="1" vertex="1">
          <mxGeometry x="210" y="1250" width="60" height="30" as="geometry" />
        </mxCell>
        <mxCell id="ts7k1Ihn8bTRgZbRFf7x-102" value="&lt;span style=&quot;font-size: 8px;&quot;&gt;&lt;font color=&quot;#fffafa&quot;&gt;Sources&lt;/font&gt;&lt;/span&gt;" style="text;html=1;strokeColor=none;fillColor=none;align=center;verticalAlign=middle;whiteSpace=wrap;rounded=0;" parent="1" vertex="1">
          <mxGeometry x="342.5" y="1250" width="60" height="30" as="geometry" />
        </mxCell>
        <mxCell id="ts7k1Ihn8bTRgZbRFf7x-104" value="&lt;font color=&quot;#ffffff&quot; style=&quot;font-size: 8px;&quot;&gt;Logout&lt;/font&gt;" style="text;html=1;strokeColor=none;fillColor=none;align=center;verticalAlign=middle;whiteSpace=wrap;rounded=0;" parent="1" vertex="1">
          <mxGeometry x="510" y="1250" width="60" height="30" as="geometry" />
        </mxCell>
        <mxCell id="RxzHgvCHx42u1vyTswOQ-52" style="edgeStyle=orthogonalEdgeStyle;rounded=0;orthogonalLoop=1;jettySize=auto;html=1;exitX=1;exitY=0.5;exitDx=0;exitDy=0;entryX=0;entryY=0.25;entryDx=0;entryDy=0;" parent="1" source="RxzHgvCHx42u1vyTswOQ-1" target="RxzHgvCHx42u1vyTswOQ-18" edge="1">
          <mxGeometry relative="1" as="geometry">
            <mxPoint x="1285" y="1777.5" as="targetPoint" />
            <Array as="points">
              <mxPoint x="1265" y="1912.5" />
              <mxPoint x="1265" y="1777.5" />
              <mxPoint x="1340" y="1777.5" />
            </Array>
          </mxGeometry>
        </mxCell>
        <mxCell id="RxzHgvCHx42u1vyTswOQ-55" value="if user selects url" style="edgeLabel;html=1;align=center;verticalAlign=middle;resizable=0;points=[];" parent="RxzHgvCHx42u1vyTswOQ-52" vertex="1" connectable="0">
          <mxGeometry x="-0.1819" y="2" relative="1" as="geometry">
            <mxPoint x="1" as="offset" />
          </mxGeometry>
        </mxCell>
        <mxCell id="RxzHgvCHx42u1vyTswOQ-53" style="edgeStyle=orthogonalEdgeStyle;rounded=0;orthogonalLoop=1;jettySize=auto;html=1;exitX=1;exitY=0.5;exitDx=0;exitDy=0;entryX=0.092;entryY=1.067;entryDx=0;entryDy=0;entryPerimeter=0;" parent="1" source="RxzHgvCHx42u1vyTswOQ-1" target="RxzHgvCHx42u1vyTswOQ-44" edge="1">
          <mxGeometry relative="1" as="geometry">
            <mxPoint x="1285" y="2067.5" as="targetPoint" />
            <Array as="points">
              <mxPoint x="1286" y="1912.5" />
              <mxPoint x="1286" y="2067.5" />
            </Array>
          </mxGeometry>
        </mxCell>
        <mxCell id="RxzHgvCHx42u1vyTswOQ-54" value="if user selects file" style="edgeLabel;html=1;align=center;verticalAlign=middle;resizable=0;points=[];" parent="RxzHgvCHx42u1vyTswOQ-53" vertex="1" connectable="0">
          <mxGeometry x="-0.1511" y="-1" relative="1" as="geometry">
            <mxPoint as="offset" />
          </mxGeometry>
        </mxCell>
        <mxCell id="RxzHgvCHx42u1vyTswOQ-1" value="" style="whiteSpace=wrap;html=1;aspect=fixed;" parent="1" vertex="1">
          <mxGeometry x="1010" y="1807.5" width="210" height="210" as="geometry" />
        </mxCell>
        <mxCell id="RxzHgvCHx42u1vyTswOQ-5" value="CREATE SOURCE" style="text;html=1;strokeColor=none;fillColor=none;align=center;verticalAlign=middle;whiteSpace=wrap;rounded=0;" parent="1" vertex="1">
          <mxGeometry x="1022.5" y="1817.5" width="185" height="30" as="geometry" />
        </mxCell>
        <mxCell id="RxzHgvCHx42u1vyTswOQ-6" value="Type V" style="rounded=1;whiteSpace=wrap;html=1;" parent="1" vertex="1">
          <mxGeometry x="1145" y="1862.5" width="50" height="20" as="geometry" />
        </mxCell>
        <mxCell id="RxzHgvCHx42u1vyTswOQ-8" value="Type V" style="rounded=1;whiteSpace=wrap;html=1;" parent="1" vertex="1">
          <mxGeometry x="1145" y="1907.5" width="50" height="20" as="geometry" />
        </mxCell>
        <mxCell id="RxzHgvCHx42u1vyTswOQ-9" value="Select source type" style="text;html=1;strokeColor=none;fillColor=none;align=center;verticalAlign=middle;whiteSpace=wrap;rounded=0;" parent="1" vertex="1">
          <mxGeometry x="1015" y="1857.5" width="120" height="30" as="geometry" />
        </mxCell>
        <mxCell id="RxzHgvCHx42u1vyTswOQ-10" value="Select source format" style="text;html=1;strokeColor=none;fillColor=none;align=center;verticalAlign=middle;whiteSpace=wrap;rounded=0;" parent="1" vertex="1">
          <mxGeometry x="1015" y="1902.5" width="120" height="30" as="geometry" />
        </mxCell>
        <mxCell id="RxzHgvCHx42u1vyTswOQ-11" value="&lt;font size=&quot;1&quot;&gt;Continue&lt;/font&gt;" style="rounded=1;whiteSpace=wrap;html=1;" parent="1" vertex="1">
          <mxGeometry x="1085" y="1957.5" width="60" height="20" as="geometry" />
        </mxCell>
        <mxCell id="RxzHgvCHx42u1vyTswOQ-12" value="" style="rounded=1;whiteSpace=wrap;html=1;" parent="1" vertex="1">
          <mxGeometry x="1340" y="1720" width="245" height="225" as="geometry" />
        </mxCell>
        <mxCell id="RxzHgvCHx42u1vyTswOQ-13" value="Create source url" style="text;html=1;strokeColor=none;fillColor=none;align=center;verticalAlign=middle;whiteSpace=wrap;rounded=0;" parent="1" vertex="1">
          <mxGeometry x="1350" y="1720" width="215" height="30" as="geometry" />
        </mxCell>
        <mxCell id="RxzHgvCHx42u1vyTswOQ-14" value="" style="rounded=1;whiteSpace=wrap;html=1;" parent="1" vertex="1">
          <mxGeometry x="1350" y="1757.5" width="225" height="10" as="geometry" />
        </mxCell>
        <mxCell id="RxzHgvCHx42u1vyTswOQ-15" value="&lt;font size=&quot;1&quot;&gt;Url:&lt;/font&gt;" style="text;html=1;strokeColor=none;fillColor=none;align=center;verticalAlign=middle;whiteSpace=wrap;rounded=0;" parent="1" vertex="1">
          <mxGeometry x="1330" y="1737.5" width="60" height="30" as="geometry" />
        </mxCell>
        <mxCell id="RxzHgvCHx42u1vyTswOQ-16" value="" style="rounded=1;whiteSpace=wrap;html=1;" parent="1" vertex="1">
          <mxGeometry x="1348.12" y="1787.5" width="226.88" height="10" as="geometry" />
        </mxCell>
        <mxCell id="RxzHgvCHx42u1vyTswOQ-18" value="&lt;font size=&quot;1&quot;&gt;Name:&lt;/font&gt;" style="text;html=1;strokeColor=none;fillColor=none;align=center;verticalAlign=middle;whiteSpace=wrap;rounded=0;" parent="1" vertex="1">
          <mxGeometry x="1340" y="1767.5" width="45" height="30" as="geometry" />
        </mxCell>
        <mxCell id="RxzHgvCHx42u1vyTswOQ-19" value="" style="rounded=1;whiteSpace=wrap;html=1;" parent="1" vertex="1">
          <mxGeometry x="1348.12" y="1817.5" width="226.88" height="10" as="geometry" />
        </mxCell>
        <mxCell id="RxzHgvCHx42u1vyTswOQ-20" value="&lt;font size=&quot;1&quot;&gt;Author:&lt;/font&gt;" style="text;html=1;strokeColor=none;fillColor=none;align=center;verticalAlign=middle;whiteSpace=wrap;rounded=0;" parent="1" vertex="1">
          <mxGeometry x="1332.5" y="1797.5" width="60" height="30" as="geometry" />
        </mxCell>
        <mxCell id="RxzHgvCHx42u1vyTswOQ-23" value="" style="rounded=1;whiteSpace=wrap;html=1;" parent="1" vertex="1">
          <mxGeometry x="1347.5" y="1847.5" width="227.5" height="10" as="geometry" />
        </mxCell>
        <mxCell id="RxzHgvCHx42u1vyTswOQ-24" value="&lt;font size=&quot;1&quot;&gt;Publisher:&lt;/font&gt;" style="text;html=1;strokeColor=none;fillColor=none;align=center;verticalAlign=middle;whiteSpace=wrap;rounded=0;" parent="1" vertex="1">
          <mxGeometry x="1340" y="1827.5" width="60" height="30" as="geometry" />
        </mxCell>
        <mxCell id="RxzHgvCHx42u1vyTswOQ-33" value="" style="rounded=1;whiteSpace=wrap;html=1;" parent="1" vertex="1">
          <mxGeometry x="1347.5" y="1882.5" width="227.5" height="10" as="geometry" />
        </mxCell>
        <mxCell id="RxzHgvCHx42u1vyTswOQ-34" value="&lt;font size=&quot;1&quot;&gt;Publisher year:&lt;/font&gt;" style="text;html=1;strokeColor=none;fillColor=none;align=center;verticalAlign=middle;whiteSpace=wrap;rounded=0;" parent="1" vertex="1">
          <mxGeometry x="1347.5" y="1857.5" width="75" height="30" as="geometry" />
        </mxCell>
        <mxCell id="RxzHgvCHx42u1vyTswOQ-35" value="&lt;font size=&quot;1&quot;&gt;Clear&lt;/font&gt;" style="rounded=1;whiteSpace=wrap;html=1;" parent="1" vertex="1">
          <mxGeometry x="1390" y="1907.5" width="60" height="20" as="geometry" />
        </mxCell>
        <mxCell id="RxzHgvCHx42u1vyTswOQ-36" value="&lt;font size=&quot;1&quot;&gt;Create&lt;/font&gt;" style="rounded=1;whiteSpace=wrap;html=1;" parent="1" vertex="1">
          <mxGeometry x="1467.5" y="1907.5" width="60" height="20" as="geometry" />
        </mxCell>
        <mxCell id="RxzHgvCHx42u1vyTswOQ-37" value="" style="rounded=1;whiteSpace=wrap;html=1;" parent="1" vertex="1">
          <mxGeometry x="1340" y="1957.5" width="245" height="225" as="geometry" />
        </mxCell>
        <mxCell id="RxzHgvCHx42u1vyTswOQ-38" value="Create source file" style="text;html=1;strokeColor=none;fillColor=none;align=center;verticalAlign=middle;whiteSpace=wrap;rounded=0;" parent="1" vertex="1">
          <mxGeometry x="1350" y="1957.5" width="215" height="30" as="geometry" />
        </mxCell>
        <mxCell id="RxzHgvCHx42u1vyTswOQ-39" value="" style="rounded=1;whiteSpace=wrap;html=1;" parent="1" vertex="1">
          <mxGeometry x="1350" y="1995" width="225" height="10" as="geometry" />
        </mxCell>
        <mxCell id="RxzHgvCHx42u1vyTswOQ-40" value="&lt;font size=&quot;1&quot;&gt;file:&lt;/font&gt;" style="text;html=1;strokeColor=none;fillColor=none;align=center;verticalAlign=middle;whiteSpace=wrap;rounded=0;" parent="1" vertex="1">
          <mxGeometry x="1330" y="1975" width="60" height="30" as="geometry" />
        </mxCell>
        <mxCell id="RxzHgvCHx42u1vyTswOQ-41" value="" style="rounded=1;whiteSpace=wrap;html=1;" parent="1" vertex="1">
          <mxGeometry x="1348.12" y="2025" width="226.88" height="10" as="geometry" />
        </mxCell>
        <mxCell id="RxzHgvCHx42u1vyTswOQ-42" value="&lt;font size=&quot;1&quot;&gt;Name:&lt;/font&gt;" style="text;html=1;strokeColor=none;fillColor=none;align=center;verticalAlign=middle;whiteSpace=wrap;rounded=0;" parent="1" vertex="1">
          <mxGeometry x="1340" y="2005" width="45" height="30" as="geometry" />
        </mxCell>
        <mxCell id="RxzHgvCHx42u1vyTswOQ-43" value="" style="rounded=1;whiteSpace=wrap;html=1;" parent="1" vertex="1">
          <mxGeometry x="1348.12" y="2055" width="226.88" height="10" as="geometry" />
        </mxCell>
        <mxCell id="RxzHgvCHx42u1vyTswOQ-44" value="&lt;font size=&quot;1&quot;&gt;Author:&lt;/font&gt;" style="text;html=1;strokeColor=none;fillColor=none;align=center;verticalAlign=middle;whiteSpace=wrap;rounded=0;" parent="1" vertex="1">
          <mxGeometry x="1332.5" y="2035" width="60" height="30" as="geometry" />
        </mxCell>
        <mxCell id="RxzHgvCHx42u1vyTswOQ-45" value="" style="rounded=1;whiteSpace=wrap;html=1;" parent="1" vertex="1">
          <mxGeometry x="1347.5" y="2085" width="227.5" height="10" as="geometry" />
        </mxCell>
        <mxCell id="RxzHgvCHx42u1vyTswOQ-46" value="&lt;font size=&quot;1&quot;&gt;Publisher:&lt;/font&gt;" style="text;html=1;strokeColor=none;fillColor=none;align=center;verticalAlign=middle;whiteSpace=wrap;rounded=0;" parent="1" vertex="1">
          <mxGeometry x="1340" y="2065" width="60" height="30" as="geometry" />
        </mxCell>
        <mxCell id="RxzHgvCHx42u1vyTswOQ-47" value="" style="rounded=1;whiteSpace=wrap;html=1;" parent="1" vertex="1">
          <mxGeometry x="1347.5" y="2120" width="227.5" height="10" as="geometry" />
        </mxCell>
        <mxCell id="RxzHgvCHx42u1vyTswOQ-48" value="&lt;font size=&quot;1&quot;&gt;Publisher year:&lt;/font&gt;" style="text;html=1;strokeColor=none;fillColor=none;align=center;verticalAlign=middle;whiteSpace=wrap;rounded=0;" parent="1" vertex="1">
          <mxGeometry x="1347.5" y="2095" width="75" height="30" as="geometry" />
        </mxCell>
        <mxCell id="RxzHgvCHx42u1vyTswOQ-49" value="&lt;font size=&quot;1&quot;&gt;Clear&lt;/font&gt;" style="rounded=1;whiteSpace=wrap;html=1;" parent="1" vertex="1">
          <mxGeometry x="1390" y="2145" width="60" height="20" as="geometry" />
        </mxCell>
        <mxCell id="RxzHgvCHx42u1vyTswOQ-50" value="&lt;font size=&quot;1&quot;&gt;Create&lt;/font&gt;" style="rounded=1;whiteSpace=wrap;html=1;" parent="1" vertex="1">
          <mxGeometry x="1467.5" y="2145" width="60" height="20" as="geometry" />
        </mxCell>
        <mxCell id="RxzHgvCHx42u1vyTswOQ-51" value="---" style="rounded=1;whiteSpace=wrap;html=1;" parent="1" vertex="1">
          <mxGeometry x="1555" y="1996" width="20" height="8" as="geometry" />
        </mxCell>
        <mxCell id="RxzHgvCHx42u1vyTswOQ-58" value="" style="rounded=1;whiteSpace=wrap;html=1;" parent="1" vertex="1">
          <mxGeometry x="1810" y="1587.5" width="250" height="262.5" as="geometry" />
        </mxCell>
        <mxCell id="RxzHgvCHx42u1vyTswOQ-59" value="Create Note" style="text;html=1;strokeColor=none;fillColor=none;align=center;verticalAlign=middle;whiteSpace=wrap;rounded=0;" parent="1" vertex="1">
          <mxGeometry x="1870" y="1600" width="130" height="30" as="geometry" />
        </mxCell>
        <mxCell id="RxzHgvCHx42u1vyTswOQ-61" value="" style="rounded=1;whiteSpace=wrap;html=1;" parent="1" vertex="1">
          <mxGeometry x="1821.56" y="1640" width="226.88" height="10" as="geometry" />
        </mxCell>
        <mxCell id="RxzHgvCHx42u1vyTswOQ-62" value="&lt;font size=&quot;1&quot;&gt;Title:&lt;/font&gt;" style="text;html=1;strokeColor=none;fillColor=none;align=center;verticalAlign=middle;whiteSpace=wrap;rounded=0;" parent="1" vertex="1">
          <mxGeometry x="1810" y="1620" width="45" height="30" as="geometry" />
        </mxCell>
        <mxCell id="RxzHgvCHx42u1vyTswOQ-64" value="" style="rounded=1;whiteSpace=wrap;html=1;" parent="1" vertex="1">
          <mxGeometry x="1820.78" y="1677.5" width="228.44" height="60" as="geometry" />
        </mxCell>
        <mxCell id="RxzHgvCHx42u1vyTswOQ-66" value="&lt;font size=&quot;1&quot;&gt;Content:&lt;/font&gt;" style="text;html=1;strokeColor=none;fillColor=none;align=center;verticalAlign=middle;whiteSpace=wrap;rounded=0;" parent="1" vertex="1">
          <mxGeometry x="1820.5" y="1650" width="45" height="30" as="geometry" />
        </mxCell>
        <mxCell id="RxzHgvCHx42u1vyTswOQ-67" value="&lt;font size=&quot;1&quot;&gt;Clear&lt;/font&gt;" style="rounded=1;whiteSpace=wrap;html=1;" parent="1" vertex="1">
          <mxGeometry x="1855" y="1807.5" width="60" height="20" as="geometry" />
        </mxCell>
        <mxCell id="RxzHgvCHx42u1vyTswOQ-68" value="&lt;font size=&quot;1&quot;&gt;Create&lt;/font&gt;" style="rounded=1;whiteSpace=wrap;html=1;" parent="1" vertex="1">
          <mxGeometry x="1960" y="1807.5" width="60" height="20" as="geometry" />
        </mxCell>
        <mxCell id="tBwf_EXNc8i-KZaqGDez-1" value="" style="rounded=0;whiteSpace=wrap;html=1;fillColor=#333;" parent="1" vertex="1">
          <mxGeometry x="160" y="1285" width="430" height="60" as="geometry" />
        </mxCell>
        <mxCell id="ts7k1Ihn8bTRgZbRFf7x-119" value="&lt;font style=&quot;font-size: 16px;&quot; color=&quot;#ffffff&quot;&gt;Sources&lt;/font&gt;" style="text;html=1;strokeColor=none;fillColor=none;align=center;verticalAlign=middle;whiteSpace=wrap;rounded=0;" parent="1" vertex="1">
          <mxGeometry x="325" y="1285" width="95" height="45" as="geometry" />
        </mxCell>
        <mxCell id="tBwf_EXNc8i-KZaqGDez-2" value="" style="rounded=0;whiteSpace=wrap;html=1;strokeColor=none;" parent="1" vertex="1">
          <mxGeometry x="170" y="1325" width="370" height="10" as="geometry" />
        </mxCell>
        <mxCell id="uQ3wynb4Wp6j9YUOQWjD-7" style="edgeStyle=orthogonalEdgeStyle;rounded=0;orthogonalLoop=1;jettySize=auto;html=1;exitX=1;exitY=0.5;exitDx=0;exitDy=0;entryX=-0.021;entryY=0.609;entryDx=0;entryDy=0;entryPerimeter=0;" parent="1" source="tBwf_EXNc8i-KZaqGDez-3" target="RxzHgvCHx42u1vyTswOQ-1" edge="1">
          <mxGeometry relative="1" as="geometry">
            <mxPoint x="650" y="1940" as="targetPoint" />
            <Array as="points">
              <mxPoint x="651" y="1330" />
              <mxPoint x="651" y="1940" />
              <mxPoint x="1006" y="1940" />
            </Array>
          </mxGeometry>
        </mxCell>
        <mxCell id="uQ3wynb4Wp6j9YUOQWjD-8" value="If user creates Source" style="edgeLabel;html=1;align=center;verticalAlign=middle;resizable=0;points=[];" parent="uQ3wynb4Wp6j9YUOQWjD-7" vertex="1" connectable="0">
          <mxGeometry x="0.4493" relative="1" as="geometry">
            <mxPoint as="offset" />
          </mxGeometry>
        </mxCell>
        <mxCell id="tBwf_EXNc8i-KZaqGDez-3" value="&lt;font color=&quot;#ffffff&quot; style=&quot;font-size: 4px;&quot;&gt;Add Source&lt;/font&gt;" style="rounded=1;whiteSpace=wrap;html=1;align=center;fillColor=#3498db;strokeColor=none;" parent="1" vertex="1">
          <mxGeometry x="550" y="1325" width="30" height="10" as="geometry" />
        </mxCell>
        <mxCell id="tBwf_EXNc8i-KZaqGDez-4" value="Source" style="rounded=1;whiteSpace=wrap;html=1;" parent="1" vertex="1">
          <mxGeometry x="170" y="1355" width="90" height="40" as="geometry" />
        </mxCell>
        <mxCell id="tBwf_EXNc8i-KZaqGDez-5" value="Source" style="rounded=1;whiteSpace=wrap;html=1;" parent="1" vertex="1">
          <mxGeometry x="270" y="1355" width="90" height="40" as="geometry" />
        </mxCell>
        <mxCell id="tBwf_EXNc8i-KZaqGDez-7" value="" style="rounded=1;whiteSpace=wrap;html=1;fillColor=#3498db;strokeColor=none;" parent="1" vertex="1">
          <mxGeometry x="1110" y="1295.63" width="25" height="13.75" as="geometry" />
        </mxCell>
        <mxCell id="1hsXzxKCKnJVlKgYQzL8-3" style="edgeStyle=orthogonalEdgeStyle;rounded=0;orthogonalLoop=1;jettySize=auto;html=1;exitX=1;exitY=0.5;exitDx=0;exitDy=0;entryX=0.438;entryY=0.005;entryDx=0;entryDy=0;entryPerimeter=0;" parent="1" source="ts7k1Ihn8bTRgZbRFf7x-79" target="RxzHgvCHx42u1vyTswOQ-58" edge="1">
          <mxGeometry relative="1" as="geometry" />
        </mxCell>
        <mxCell id="1hsXzxKCKnJVlKgYQzL8-4" value="if user adds a note" style="edgeLabel;html=1;align=center;verticalAlign=middle;resizable=0;points=[];" parent="1hsXzxKCKnJVlKgYQzL8-3" vertex="1" connectable="0">
          <mxGeometry x="-0.1256" y="-1" relative="1" as="geometry">
            <mxPoint as="offset" />
          </mxGeometry>
        </mxCell>
        <mxCell id="ts7k1Ihn8bTRgZbRFf7x-79" value="&lt;span style=&quot;font-size: 8px;&quot;&gt;&lt;font color=&quot;#ffffff&quot;&gt;Add&lt;/font&gt;&lt;/span&gt;" style="text;html=1;strokeColor=none;fillColor=none;align=left;verticalAlign=middle;whiteSpace=wrap;rounded=0;" parent="1" vertex="1">
          <mxGeometry x="1110" y="1287.5" width="30" height="30" as="geometry" />
        </mxCell>
        <mxCell id="tBwf_EXNc8i-KZaqGDez-8" value="&lt;span style=&quot;font-size: 8px;&quot;&gt;Email&lt;/span&gt;" style="rounded=1;whiteSpace=wrap;html=1;align=left;" parent="1" vertex="1">
          <mxGeometry x="-437.5" y="325.5" width="170" height="15" as="geometry" />
        </mxCell>
        <mxCell id="tBwf_EXNc8i-KZaqGDez-9" value="&lt;span style=&quot;font-size: 8px;&quot;&gt;Phone&lt;/span&gt;" style="rounded=1;whiteSpace=wrap;html=1;align=left;" parent="1" vertex="1">
          <mxGeometry x="-437.5" y="300" width="170" height="15" as="geometry" />
        </mxCell>
        <mxCell id="tBwf_EXNc8i-KZaqGDez-10" value="&lt;span style=&quot;font-size: 8px;&quot;&gt;Last Name&lt;/span&gt;" style="rounded=1;whiteSpace=wrap;html=1;align=left;" parent="1" vertex="1">
          <mxGeometry x="-437.5" y="277.5" width="170" height="15" as="geometry" />
        </mxCell>
        <mxCell id="tBwf_EXNc8i-KZaqGDez-11" value="&lt;span style=&quot;font-size: 8px;&quot;&gt;First Name&lt;/span&gt;" style="rounded=1;whiteSpace=wrap;html=1;align=left;" parent="1" vertex="1">
          <mxGeometry x="-436.1" y="255" width="170" height="15" as="geometry" />
        </mxCell>
        <mxCell id="taiPZu52dlG4vFXNMGf5-2" value="&lt;font style=&quot;font-size: 250px;&quot;&gt;WEB&lt;/font&gt;" style="text;html=1;strokeColor=none;fillColor=none;align=center;verticalAlign=middle;whiteSpace=wrap;rounded=0;" parent="1" vertex="1">
          <mxGeometry x="-800" y="-190" width="310" height="50" as="geometry" />
        </mxCell>
        <mxCell id="taiPZu52dlG4vFXNMGf5-4" value="&lt;font style=&quot;font-size: 250px;&quot;&gt;Desktop&lt;/font&gt;" style="text;html=1;strokeColor=none;fillColor=none;align=center;verticalAlign=middle;whiteSpace=wrap;rounded=0;" parent="1" vertex="1">
          <mxGeometry x="2850" y="-120" width="310" height="30" as="geometry" />
        </mxCell>
        <mxCell id="taiPZu52dlG4vFXNMGf5-5" value="" style="whiteSpace=wrap;html=1;aspect=fixed;" parent="1" vertex="1">
          <mxGeometry x="3530" y="187.5" width="430" height="430" as="geometry" />
        </mxCell>
        <mxCell id="taiPZu52dlG4vFXNMGf5-6" value="" style="rounded=1;whiteSpace=wrap;html=1;" parent="1" vertex="1">
          <mxGeometry x="3629.38" y="247.5" width="231.25" height="170" as="geometry" />
        </mxCell>
        <mxCell id="taiPZu52dlG4vFXNMGf5-7" value="Login Page" style="text;html=1;align=center;verticalAlign=middle;resizable=0;points=[];autosize=1;strokeColor=none;fillColor=none;" parent="1" vertex="1">
          <mxGeometry x="3530" y="145.5" width="80" height="30" as="geometry" />
        </mxCell>
        <mxCell id="taiPZu52dlG4vFXNMGf5-8" value="Login" style="text;html=1;strokeColor=none;fillColor=none;align=center;verticalAlign=middle;whiteSpace=wrap;rounded=0;" parent="1" vertex="1">
          <mxGeometry x="3715" y="267.5" width="60" height="30" as="geometry" />
        </mxCell>
        <mxCell id="taiPZu52dlG4vFXNMGf5-9" value="" style="rounded=1;whiteSpace=wrap;html=1;align=left;" parent="1" vertex="1">
          <mxGeometry x="3660" y="305" width="170" height="15" as="geometry" />
        </mxCell>
        <mxCell id="taiPZu52dlG4vFXNMGf5-10" value="" style="rounded=1;whiteSpace=wrap;html=1;align=left;" parent="1" vertex="1">
          <mxGeometry x="3660" y="335" width="170" height="15" as="geometry" />
        </mxCell>
        <mxCell id="taiPZu52dlG4vFXNMGf5-11" value="&lt;font style=&quot;font-size: 9px;&quot;&gt;Login&lt;/font&gt;" style="rounded=1;whiteSpace=wrap;html=1;fillColor=#dae8fc;strokeColor=#6c8ebf;" parent="1" vertex="1">
          <mxGeometry x="3715" y="367.5" width="65" height="20" as="geometry" />
        </mxCell>
        <mxCell id="taiPZu52dlG4vFXNMGf5-12" style="edgeStyle=orthogonalEdgeStyle;rounded=0;orthogonalLoop=1;jettySize=auto;html=1;exitX=0;exitY=0.5;exitDx=0;exitDy=0;" parent="1" source="taiPZu52dlG4vFXNMGf5-14" edge="1">
          <mxGeometry relative="1" as="geometry">
            <mxPoint x="3210" y="402.89130434782624" as="targetPoint" />
          </mxGeometry>
        </mxCell>
        <mxCell id="taiPZu52dlG4vFXNMGf5-13" value="If User does not have an account" style="edgeLabel;html=1;align=center;verticalAlign=middle;resizable=0;points=[];" parent="taiPZu52dlG4vFXNMGf5-12" vertex="1" connectable="0">
          <mxGeometry x="0.042" y="-1" relative="1" as="geometry">
            <mxPoint as="offset" />
          </mxGeometry>
        </mxCell>
        <mxCell id="taiPZu52dlG4vFXNMGf5-14" value="&lt;font style=&quot;font-size: 6px;&quot;&gt;Don&#39;t have a account click here?&lt;/font&gt;" style="text;html=1;strokeColor=none;fillColor=none;align=left;verticalAlign=middle;whiteSpace=wrap;rounded=0;" parent="1" vertex="1">
          <mxGeometry x="3640" y="387.5" width="190" height="30" as="geometry" />
        </mxCell>
        <mxCell id="taiPZu52dlG4vFXNMGf5-15" value="" style="rounded=0;whiteSpace=wrap;html=1;" parent="1" vertex="1">
          <mxGeometry x="2770" y="175.5" width="435" height="430" as="geometry" />
        </mxCell>
        <mxCell id="taiPZu52dlG4vFXNMGf5-16" value="Register Page" style="text;html=1;align=center;verticalAlign=middle;resizable=0;points=[];autosize=1;strokeColor=none;fillColor=none;" parent="1" vertex="1">
          <mxGeometry x="2770" y="137.5" width="100" height="30" as="geometry" />
        </mxCell>
        <mxCell id="taiPZu52dlG4vFXNMGf5-17" value="" style="rounded=1;whiteSpace=wrap;html=1;" parent="1" vertex="1">
          <mxGeometry x="2870" y="237.5" width="242.19" height="260" as="geometry" />
        </mxCell>
        <mxCell id="taiPZu52dlG4vFXNMGf5-18" value="" style="rounded=1;whiteSpace=wrap;html=1;align=left;" parent="1" vertex="1">
          <mxGeometry x="2903.9" y="282.5" width="170" height="15" as="geometry" />
        </mxCell>
        <mxCell id="taiPZu52dlG4vFXNMGf5-19" value="" style="rounded=1;whiteSpace=wrap;html=1;align=left;" parent="1" vertex="1">
          <mxGeometry x="2902.5" y="410" width="170" height="15" as="geometry" />
        </mxCell>
        <mxCell id="taiPZu52dlG4vFXNMGf5-20" value="" style="rounded=1;whiteSpace=wrap;html=1;align=left;" parent="1" vertex="1">
          <mxGeometry x="2902.5" y="440" width="170" height="15" as="geometry" />
        </mxCell>
        <mxCell id="taiPZu52dlG4vFXNMGf5-21" value="Register" style="text;html=1;strokeColor=none;fillColor=none;align=center;verticalAlign=middle;whiteSpace=wrap;rounded=0;" parent="1" vertex="1">
          <mxGeometry x="2957.5" y="240" width="60" height="30" as="geometry" />
        </mxCell>
        <mxCell id="taiPZu52dlG4vFXNMGf5-22" style="edgeStyle=orthogonalEdgeStyle;rounded=0;orthogonalLoop=1;jettySize=auto;html=1;exitX=1;exitY=0.5;exitDx=0;exitDy=0;entryX=0.007;entryY=0.424;entryDx=0;entryDy=0;entryPerimeter=0;" parent="1" source="taiPZu52dlG4vFXNMGf5-24" target="taiPZu52dlG4vFXNMGf5-5" edge="1">
          <mxGeometry relative="1" as="geometry" />
        </mxCell>
        <mxCell id="taiPZu52dlG4vFXNMGf5-23" value="Once the user registers it takes them back" style="edgeLabel;html=1;align=center;verticalAlign=middle;resizable=0;points=[];" parent="taiPZu52dlG4vFXNMGf5-22" vertex="1" connectable="0">
          <mxGeometry x="0.0538" y="-3" relative="1" as="geometry">
            <mxPoint x="119" y="-5" as="offset" />
          </mxGeometry>
        </mxCell>
        <mxCell id="taiPZu52dlG4vFXNMGf5-24" value="&lt;font size=&quot;1&quot;&gt;Register&lt;/font&gt;" style="rounded=1;whiteSpace=wrap;html=1;fillColor=#d5e8d4;strokeColor=#82b366;" parent="1" vertex="1">
          <mxGeometry x="2950" y="460" width="60" height="20" as="geometry" />
        </mxCell>
        <mxCell id="taiPZu52dlG4vFXNMGf5-25" style="edgeStyle=orthogonalEdgeStyle;rounded=0;orthogonalLoop=1;jettySize=auto;html=1;exitX=1;exitY=0.5;exitDx=0;exitDy=0;entryX=-0.007;entryY=0.709;entryDx=0;entryDy=0;entryPerimeter=0;" parent="1" source="taiPZu52dlG4vFXNMGf5-27" target="taiPZu52dlG4vFXNMGf5-5" edge="1">
          <mxGeometry relative="1" as="geometry">
            <mxPoint x="3260" y="487.5" as="targetPoint" />
            <Array as="points">
              <mxPoint x="3230" y="412.5" />
              <mxPoint x="3230" y="487.5" />
              <mxPoint x="3527" y="487.5" />
            </Array>
          </mxGeometry>
        </mxCell>
        <mxCell id="taiPZu52dlG4vFXNMGf5-26" value="if the user already has an account" style="edgeLabel;html=1;align=center;verticalAlign=middle;resizable=0;points=[];" parent="taiPZu52dlG4vFXNMGf5-25" vertex="1" connectable="0">
          <mxGeometry x="0.2895" y="2" relative="1" as="geometry">
            <mxPoint as="offset" />
          </mxGeometry>
        </mxCell>
        <mxCell id="taiPZu52dlG4vFXNMGf5-27" value="&lt;font style=&quot;font-size: 6px;&quot;&gt;Already have a account click here?&lt;/font&gt;" style="text;html=1;strokeColor=none;fillColor=none;align=left;verticalAlign=middle;whiteSpace=wrap;rounded=0;" parent="1" vertex="1">
          <mxGeometry x="2930" y="467.5" width="190" height="30" as="geometry" />
        </mxCell>
        <mxCell id="taiPZu52dlG4vFXNMGf5-28" value="" style="rounded=1;whiteSpace=wrap;html=1;align=left;" parent="1" vertex="1">
          <mxGeometry x="2902.5" y="385" width="170" height="15" as="geometry" />
        </mxCell>
        <mxCell id="taiPZu52dlG4vFXNMGf5-29" value="" style="rounded=1;whiteSpace=wrap;html=1;align=left;" parent="1" vertex="1">
          <mxGeometry x="2902.5" y="360" width="170" height="15" as="geometry" />
        </mxCell>
        <mxCell id="taiPZu52dlG4vFXNMGf5-30" value="" style="rounded=1;whiteSpace=wrap;html=1;align=left;" parent="1" vertex="1">
          <mxGeometry x="2902.5" y="335" width="170" height="15" as="geometry" />
        </mxCell>
        <mxCell id="taiPZu52dlG4vFXNMGf5-31" value="" style="rounded=1;whiteSpace=wrap;html=1;align=left;" parent="1" vertex="1">
          <mxGeometry x="2903.9" y="310.5" width="170" height="15" as="geometry" />
        </mxCell>
        <mxCell id="taiPZu52dlG4vFXNMGf5-40" value="" style="whiteSpace=wrap;html=1;aspect=fixed;" parent="1" vertex="1">
          <mxGeometry x="3532.5" y="700" width="430" height="430" as="geometry" />
        </mxCell>
        <mxCell id="taiPZu52dlG4vFXNMGf5-41" value="" style="rounded=0;whiteSpace=wrap;html=1;fillColor=#3498db;strokeColor=#6c8ebf;" parent="1" vertex="1">
          <mxGeometry x="3532.5" y="700" width="430" height="40" as="geometry" />
        </mxCell>
        <mxCell id="K5eOgZRje_PzOJEhZqbw-27" style="edgeStyle=orthogonalEdgeStyle;rounded=0;orthogonalLoop=1;jettySize=auto;html=1;exitX=0.392;exitY=1.015;exitDx=0;exitDy=0;entryX=0.304;entryY=1.003;entryDx=0;entryDy=0;entryPerimeter=0;exitPerimeter=0;" parent="1" source="taiPZu52dlG4vFXNMGf5-42" edge="1">
          <mxGeometry relative="1" as="geometry">
            <mxPoint x="3592.5" y="767.5" as="sourcePoint" />
            <mxPoint x="4183.76" y="1178.8199999999997" as="targetPoint" />
          </mxGeometry>
        </mxCell>
        <mxCell id="K5eOgZRje_PzOJEhZqbw-28" value="If user selects sources" style="edgeLabel;html=1;align=center;verticalAlign=middle;resizable=0;points=[];" parent="K5eOgZRje_PzOJEhZqbw-27" vertex="1" connectable="0">
          <mxGeometry x="0.0625" y="-1" relative="1" as="geometry">
            <mxPoint as="offset" />
          </mxGeometry>
        </mxCell>
        <mxCell id="taiPZu52dlG4vFXNMGf5-42" value="&lt;span style=&quot;font-size: 8px;&quot;&gt;&lt;font color=&quot;#fffafa&quot;&gt;Sources&lt;/font&gt;&lt;/span&gt;" style="text;html=1;strokeColor=none;fillColor=none;align=center;verticalAlign=middle;whiteSpace=wrap;rounded=0;" parent="1" vertex="1">
          <mxGeometry x="3532.5" y="705" width="60" height="30" as="geometry" />
        </mxCell>
        <mxCell id="taiPZu52dlG4vFXNMGf5-43" value="&lt;font color=&quot;#ffffff&quot; style=&quot;font-size: 8px;&quot;&gt;Logout&lt;/font&gt;" style="text;html=1;strokeColor=none;fillColor=none;align=center;verticalAlign=middle;whiteSpace=wrap;rounded=0;" parent="1" vertex="1">
          <mxGeometry x="3900" y="705" width="60" height="30" as="geometry" />
        </mxCell>
        <mxCell id="taiPZu52dlG4vFXNMGf5-44" value="Welcome {Username}" style="text;html=1;strokeColor=none;fillColor=none;align=center;verticalAlign=middle;whiteSpace=wrap;rounded=0;" parent="1" vertex="1">
          <mxGeometry x="3542.5" y="780" width="120" height="30" as="geometry" />
        </mxCell>
        <mxCell id="taiPZu52dlG4vFXNMGf5-45" value="&lt;font style=&quot;font-size: 9px;&quot;&gt;Recent Sources:&lt;/font&gt;" style="text;html=1;strokeColor=none;fillColor=none;align=center;verticalAlign=middle;whiteSpace=wrap;rounded=0;" parent="1" vertex="1">
          <mxGeometry x="3532.5" y="820" width="120" height="30" as="geometry" />
        </mxCell>
        <mxCell id="taiPZu52dlG4vFXNMGf5-46" value="" style="rounded=1;whiteSpace=wrap;html=1;" parent="1" vertex="1">
          <mxGeometry x="3542.5" y="850" width="120" height="60" as="geometry" />
        </mxCell>
        <mxCell id="taiPZu52dlG4vFXNMGf5-47" value="" style="rounded=1;whiteSpace=wrap;html=1;" parent="1" vertex="1">
          <mxGeometry x="3687.5" y="850" width="120" height="60" as="geometry" />
        </mxCell>
        <mxCell id="taiPZu52dlG4vFXNMGf5-48" value="" style="rounded=1;whiteSpace=wrap;html=1;" parent="1" vertex="1">
          <mxGeometry x="3832.5" y="850" width="120" height="60" as="geometry" />
        </mxCell>
        <mxCell id="taiPZu52dlG4vFXNMGf5-49" value="" style="endArrow=classic;html=1;rounded=0;" parent="1" source="taiPZu52dlG4vFXNMGf5-5" target="taiPZu52dlG4vFXNMGf5-41" edge="1">
          <mxGeometry width="50" height="50" relative="1" as="geometry">
            <mxPoint x="4010" y="630" as="sourcePoint" />
            <mxPoint x="4060" y="580" as="targetPoint" />
          </mxGeometry>
        </mxCell>
        <mxCell id="taiPZu52dlG4vFXNMGf5-58" value="If user logins in" style="edgeLabel;html=1;align=center;verticalAlign=middle;resizable=0;points=[];" parent="taiPZu52dlG4vFXNMGf5-49" vertex="1" connectable="0">
          <mxGeometry x="-0.2124" y="-1" relative="1" as="geometry">
            <mxPoint as="offset" />
          </mxGeometry>
        </mxCell>
        <mxCell id="taiPZu52dlG4vFXNMGf5-118" value="" style="whiteSpace=wrap;html=1;aspect=fixed;" parent="1" vertex="1">
          <mxGeometry x="4050" y="690" width="440" height="440" as="geometry" />
        </mxCell>
        <mxCell id="taiPZu52dlG4vFXNMGf5-119" value="" style="rounded=0;whiteSpace=wrap;html=1;fillColor=#3498db;strokeColor=#6c8ebf;" parent="1" vertex="1">
          <mxGeometry x="4050" y="690" width="440" height="40" as="geometry" />
        </mxCell>
        <mxCell id="taiPZu52dlG4vFXNMGf5-120" value="&lt;span style=&quot;font-size: 8px;&quot;&gt;&lt;font color=&quot;#fffafa&quot;&gt;Sources&lt;/font&gt;&lt;/span&gt;" style="text;html=1;strokeColor=none;fillColor=none;align=center;verticalAlign=middle;whiteSpace=wrap;rounded=0;" parent="1" vertex="1">
          <mxGeometry x="4050" y="695" width="60" height="30" as="geometry" />
        </mxCell>
        <mxCell id="taiPZu52dlG4vFXNMGf5-121" value="&lt;font color=&quot;#ffffff&quot; style=&quot;font-size: 8px;&quot;&gt;Logout&lt;/font&gt;" style="text;html=1;strokeColor=none;fillColor=none;align=center;verticalAlign=middle;whiteSpace=wrap;rounded=0;" parent="1" vertex="1">
          <mxGeometry x="4417.5" y="695" width="60" height="30" as="geometry" />
        </mxCell>
        <mxCell id="taiPZu52dlG4vFXNMGf5-122" value="Sources:&amp;nbsp;" style="text;html=1;strokeColor=none;fillColor=none;align=center;verticalAlign=middle;whiteSpace=wrap;rounded=0;" parent="1" vertex="1">
          <mxGeometry x="4070" y="780" width="120" height="30" as="geometry" />
        </mxCell>
        <mxCell id="taiPZu52dlG4vFXNMGf5-123" value="" style="rounded=1;whiteSpace=wrap;html=1;" parent="1" vertex="1">
          <mxGeometry x="4080" y="815" width="370" height="255" as="geometry" />
        </mxCell>
        <mxCell id="K5eOgZRje_PzOJEhZqbw-150" style="edgeStyle=orthogonalEdgeStyle;rounded=0;orthogonalLoop=1;jettySize=auto;html=1;exitX=1;exitY=0.5;exitDx=0;exitDy=0;entryX=0.192;entryY=-0.183;entryDx=0;entryDy=0;entryPerimeter=0;" parent="1" source="taiPZu52dlG4vFXNMGf5-126" target="K5eOgZRje_PzOJEhZqbw-115" edge="1">
          <mxGeometry relative="1" as="geometry" />
        </mxCell>
        <mxCell id="K5eOgZRje_PzOJEhZqbw-151" value="If user adds a Source&lt;br&gt;" style="edgeLabel;html=1;align=center;verticalAlign=middle;resizable=0;points=[];" parent="K5eOgZRje_PzOJEhZqbw-150" vertex="1" connectable="0">
          <mxGeometry x="0.2146" y="-2" relative="1" as="geometry">
            <mxPoint as="offset" />
          </mxGeometry>
        </mxCell>
        <mxCell id="taiPZu52dlG4vFXNMGf5-126" value="&lt;font color=&quot;#ebfffa&quot;&gt;Add&lt;/font&gt;" style="rounded=1;whiteSpace=wrap;html=1;strokeColor=#3498db;fillStyle=solid;fillColor=#3498DB;" parent="1" vertex="1">
          <mxGeometry x="4390" y="785" width="50" height="20" as="geometry" />
        </mxCell>
        <mxCell id="taiPZu52dlG4vFXNMGf5-127" value="" style="whiteSpace=wrap;html=1;aspect=fixed;" parent="1" vertex="1">
          <mxGeometry x="3565" y="1370" width="430" height="430" as="geometry" />
        </mxCell>
        <mxCell id="taiPZu52dlG4vFXNMGf5-134" value="" style="rounded=0;whiteSpace=wrap;html=1;strokeWidth=3;" parent="1" vertex="1">
          <mxGeometry x="3580" y="1455" width="282.5" height="310" as="geometry" />
        </mxCell>
        <mxCell id="taiPZu52dlG4vFXNMGf5-135" value="{{Source Title}}" style="text;html=1;strokeColor=none;fillColor=none;align=center;verticalAlign=middle;whiteSpace=wrap;rounded=0;" parent="1" vertex="1">
          <mxGeometry x="3571" y="1417.5" width="100" height="30" as="geometry" />
        </mxCell>
        <mxCell id="taiPZu52dlG4vFXNMGf5-136" value="" style="rounded=0;whiteSpace=wrap;html=1;fillColor=#333;" parent="1" vertex="1">
          <mxGeometry x="3875" y="1410" width="120" height="390" as="geometry" />
        </mxCell>
        <mxCell id="taiPZu52dlG4vFXNMGf5-137" value="&lt;font color=&quot;#ffffff&quot;&gt;Notes:&lt;/font&gt;" style="text;html=1;strokeColor=none;fillColor=none;align=center;verticalAlign=middle;whiteSpace=wrap;rounded=0;" parent="1" vertex="1">
          <mxGeometry x="3870" y="1415" width="60" height="30" as="geometry" />
        </mxCell>
        <mxCell id="taiPZu52dlG4vFXNMGf5-138" value="&lt;span style=&quot;font-size: 8px; background-color: rgb(52, 152, 219);&quot;&gt;&lt;font color=&quot;#ffffff&quot;&gt;Add&lt;/font&gt;&lt;/span&gt;" style="text;html=1;strokeColor=none;fillColor=none;align=left;verticalAlign=middle;whiteSpace=wrap;rounded=0;" parent="1" vertex="1">
          <mxGeometry x="3970" y="1380" width="45" height="37.5" as="geometry" />
        </mxCell>
        <mxCell id="taiPZu52dlG4vFXNMGf5-141" value="return" style="rounded=0;whiteSpace=wrap;html=1;" parent="1" vertex="1">
          <mxGeometry x="3571" y="1375" width="39" height="15" as="geometry" />
        </mxCell>
        <mxCell id="K5eOgZRje_PzOJEhZqbw-152" style="edgeStyle=orthogonalEdgeStyle;rounded=0;orthogonalLoop=1;jettySize=auto;html=1;exitX=0.444;exitY=0.533;exitDx=0;exitDy=0;exitPerimeter=0;" parent="1" source="taiPZu52dlG4vFXNMGf5-138" edge="1">
          <mxGeometry relative="1" as="geometry">
            <mxPoint x="4462.5" y="1658.75" as="sourcePoint" />
            <mxPoint x="4184.999999999998" y="1597.5" as="targetPoint" />
          </mxGeometry>
        </mxCell>
        <mxCell id="K5eOgZRje_PzOJEhZqbw-153" value="If user adds a note&lt;br&gt;" style="edgeLabel;html=1;align=center;verticalAlign=middle;resizable=0;points=[];" parent="K5eOgZRje_PzOJEhZqbw-152" vertex="1" connectable="0">
          <mxGeometry x="0.0189" y="2" relative="1" as="geometry">
            <mxPoint as="offset" />
          </mxGeometry>
        </mxCell>
        <mxCell id="K5eOgZRje_PzOJEhZqbw-18" value="&lt;font style=&quot;font-size: 9px;&quot;&gt;Username&lt;/font&gt;" style="text;html=1;strokeColor=none;fillColor=none;align=center;verticalAlign=middle;whiteSpace=wrap;rounded=0;" parent="1" vertex="1">
          <mxGeometry x="2898" y="260" width="60" height="30" as="geometry" />
        </mxCell>
        <mxCell id="K5eOgZRje_PzOJEhZqbw-19" value="&lt;font style=&quot;font-size: 8px;&quot;&gt;Firstname&lt;/font&gt;" style="text;html=1;strokeColor=none;fillColor=none;align=center;verticalAlign=middle;whiteSpace=wrap;rounded=0;" parent="1" vertex="1">
          <mxGeometry x="2897.5" y="290" width="60" height="30" as="geometry" />
        </mxCell>
        <mxCell id="K5eOgZRje_PzOJEhZqbw-20" value="&lt;span style=&quot;font-size: 8px;&quot;&gt;Lastname&lt;/span&gt;" style="text;html=1;strokeColor=none;fillColor=none;align=center;verticalAlign=middle;whiteSpace=wrap;rounded=0;" parent="1" vertex="1">
          <mxGeometry x="2897.5" y="312.5" width="60" height="30" as="geometry" />
        </mxCell>
        <mxCell id="K5eOgZRje_PzOJEhZqbw-21" value="&lt;span style=&quot;font-size: 8px;&quot;&gt;Email&lt;/span&gt;" style="text;html=1;strokeColor=none;fillColor=none;align=center;verticalAlign=middle;whiteSpace=wrap;rounded=0;" parent="1" vertex="1">
          <mxGeometry x="2890" y="337.5" width="60" height="30" as="geometry" />
        </mxCell>
        <mxCell id="K5eOgZRje_PzOJEhZqbw-22" value="&lt;font style=&quot;font-size: 8px;&quot;&gt;Phone&lt;/font&gt;" style="text;html=1;strokeColor=none;fillColor=none;align=center;verticalAlign=middle;whiteSpace=wrap;rounded=0;" parent="1" vertex="1">
          <mxGeometry x="2890" y="362.5" width="60" height="30" as="geometry" />
        </mxCell>
        <mxCell id="K5eOgZRje_PzOJEhZqbw-23" value="&lt;font style=&quot;font-size: 8px;&quot;&gt;Password&lt;/font&gt;" style="text;html=1;strokeColor=none;fillColor=none;align=center;verticalAlign=middle;whiteSpace=wrap;rounded=0;" parent="1" vertex="1">
          <mxGeometry x="2890" y="387.5" width="60" height="30" as="geometry" />
        </mxCell>
        <mxCell id="K5eOgZRje_PzOJEhZqbw-24" value="&lt;font style=&quot;font-size: 8px;&quot;&gt;Confirm Password&lt;/font&gt;" style="text;html=1;strokeColor=none;fillColor=none;align=center;verticalAlign=middle;whiteSpace=wrap;rounded=0;" parent="1" vertex="1">
          <mxGeometry x="2890" y="417.5" width="100" height="30" as="geometry" />
        </mxCell>
        <mxCell id="K5eOgZRje_PzOJEhZqbw-25" value="&lt;font style=&quot;font-size: 9px;&quot;&gt;Username&lt;/font&gt;" style="text;html=1;strokeColor=none;fillColor=none;align=center;verticalAlign=middle;whiteSpace=wrap;rounded=0;" parent="1" vertex="1">
          <mxGeometry x="3653" y="283" width="60" height="30" as="geometry" />
        </mxCell>
        <mxCell id="K5eOgZRje_PzOJEhZqbw-26" value="&lt;font size=&quot;1&quot;&gt;Password&lt;/font&gt;" style="text;html=1;strokeColor=none;fillColor=none;align=center;verticalAlign=middle;whiteSpace=wrap;rounded=0;" parent="1" vertex="1">
          <mxGeometry x="3655" y="310.5" width="60" height="30" as="geometry" />
        </mxCell>
        <mxCell id="K5eOgZRje_PzOJEhZqbw-32" style="edgeStyle=orthogonalEdgeStyle;rounded=0;orthogonalLoop=1;jettySize=auto;html=1;exitX=0;exitY=0.75;exitDx=0;exitDy=0;entryX=0.925;entryY=-0.002;entryDx=0;entryDy=0;entryPerimeter=0;" parent="1" source="K5eOgZRje_PzOJEhZqbw-29" target="taiPZu52dlG4vFXNMGf5-127" edge="1">
          <mxGeometry relative="1" as="geometry">
            <Array as="points">
              <mxPoint x="3990" y="855" />
              <mxPoint x="3990" y="1369" />
            </Array>
          </mxGeometry>
        </mxCell>
        <mxCell id="K5eOgZRje_PzOJEhZqbw-33" value="User Selects a source" style="edgeLabel;html=1;align=center;verticalAlign=middle;resizable=0;points=[];" parent="K5eOgZRje_PzOJEhZqbw-32" vertex="1" connectable="0">
          <mxGeometry x="-0.7101" y="-2" relative="1" as="geometry">
            <mxPoint as="offset" />
          </mxGeometry>
        </mxCell>
        <mxCell id="K5eOgZRje_PzOJEhZqbw-29" value="&lt;font style=&quot;font-size: 8px;&quot;&gt;pdf source&lt;/font&gt;" style="rounded=1;whiteSpace=wrap;html=1;align=left;" parent="1" vertex="1">
          <mxGeometry x="4100" y="840" width="330" height="20" as="geometry" />
        </mxCell>
        <mxCell id="K5eOgZRje_PzOJEhZqbw-30" value="&lt;font style=&quot;font-size: 8px;&quot;&gt;Video source&lt;/font&gt;" style="rounded=1;whiteSpace=wrap;html=1;align=left;" parent="1" vertex="1">
          <mxGeometry x="4098.75" y="870" width="330" height="20" as="geometry" />
        </mxCell>
        <mxCell id="K5eOgZRje_PzOJEhZqbw-110" style="edgeStyle=orthogonalEdgeStyle;rounded=0;orthogonalLoop=1;jettySize=auto;html=1;exitX=1;exitY=0.5;exitDx=0;exitDy=0;entryX=0;entryY=0.25;entryDx=0;entryDy=0;" parent="1" source="K5eOgZRje_PzOJEhZqbw-114" target="K5eOgZRje_PzOJEhZqbw-126" edge="1">
          <mxGeometry relative="1" as="geometry">
            <mxPoint x="4995" y="1117.5" as="targetPoint" />
            <Array as="points">
              <mxPoint x="4975" y="1252.5" />
              <mxPoint x="4975" y="1117.5" />
              <mxPoint x="5050" y="1117.5" />
            </Array>
          </mxGeometry>
        </mxCell>
        <mxCell id="K5eOgZRje_PzOJEhZqbw-111" value="if user selects url" style="edgeLabel;html=1;align=center;verticalAlign=middle;resizable=0;points=[];" parent="K5eOgZRje_PzOJEhZqbw-110" vertex="1" connectable="0">
          <mxGeometry x="-0.1819" y="2" relative="1" as="geometry">
            <mxPoint x="1" as="offset" />
          </mxGeometry>
        </mxCell>
        <mxCell id="K5eOgZRje_PzOJEhZqbw-112" style="edgeStyle=orthogonalEdgeStyle;rounded=0;orthogonalLoop=1;jettySize=auto;html=1;exitX=1;exitY=0.5;exitDx=0;exitDy=0;entryX=0.092;entryY=1.067;entryDx=0;entryDy=0;entryPerimeter=0;" parent="1" source="K5eOgZRje_PzOJEhZqbw-114" target="K5eOgZRje_PzOJEhZqbw-142" edge="1">
          <mxGeometry relative="1" as="geometry">
            <mxPoint x="4995" y="1407.5" as="targetPoint" />
            <Array as="points">
              <mxPoint x="4996" y="1252.5" />
              <mxPoint x="4996" y="1407.5" />
            </Array>
          </mxGeometry>
        </mxCell>
        <mxCell id="K5eOgZRje_PzOJEhZqbw-113" value="if user selects file" style="edgeLabel;html=1;align=center;verticalAlign=middle;resizable=0;points=[];" parent="K5eOgZRje_PzOJEhZqbw-112" vertex="1" connectable="0">
          <mxGeometry x="-0.1511" y="-1" relative="1" as="geometry">
            <mxPoint as="offset" />
          </mxGeometry>
        </mxCell>
        <mxCell id="K5eOgZRje_PzOJEhZqbw-114" value="" style="whiteSpace=wrap;html=1;aspect=fixed;" parent="1" vertex="1">
          <mxGeometry x="4720" y="1147.5" width="210" height="210" as="geometry" />
        </mxCell>
        <mxCell id="K5eOgZRje_PzOJEhZqbw-115" value="CREATE SOURCE" style="text;html=1;strokeColor=none;fillColor=none;align=center;verticalAlign=middle;whiteSpace=wrap;rounded=0;" parent="1" vertex="1">
          <mxGeometry x="4732.5" y="1157.5" width="185" height="30" as="geometry" />
        </mxCell>
        <mxCell id="K5eOgZRje_PzOJEhZqbw-116" value="Type V" style="rounded=1;whiteSpace=wrap;html=1;" parent="1" vertex="1">
          <mxGeometry x="4855" y="1202.5" width="50" height="20" as="geometry" />
        </mxCell>
        <mxCell id="K5eOgZRje_PzOJEhZqbw-117" value="Type V" style="rounded=1;whiteSpace=wrap;html=1;" parent="1" vertex="1">
          <mxGeometry x="4855" y="1247.5" width="50" height="20" as="geometry" />
        </mxCell>
        <mxCell id="K5eOgZRje_PzOJEhZqbw-118" value="Select source type" style="text;html=1;strokeColor=none;fillColor=none;align=center;verticalAlign=middle;whiteSpace=wrap;rounded=0;" parent="1" vertex="1">
          <mxGeometry x="4725" y="1197.5" width="120" height="30" as="geometry" />
        </mxCell>
        <mxCell id="K5eOgZRje_PzOJEhZqbw-119" value="Select source format" style="text;html=1;strokeColor=none;fillColor=none;align=center;verticalAlign=middle;whiteSpace=wrap;rounded=0;" parent="1" vertex="1">
          <mxGeometry x="4725" y="1242.5" width="120" height="30" as="geometry" />
        </mxCell>
        <mxCell id="K5eOgZRje_PzOJEhZqbw-120" value="&lt;font size=&quot;1&quot;&gt;Continue&lt;/font&gt;" style="rounded=1;whiteSpace=wrap;html=1;" parent="1" vertex="1">
          <mxGeometry x="4795" y="1297.5" width="60" height="20" as="geometry" />
        </mxCell>
        <mxCell id="K5eOgZRje_PzOJEhZqbw-121" value="" style="rounded=1;whiteSpace=wrap;html=1;" parent="1" vertex="1">
          <mxGeometry x="5050" y="1060" width="245" height="225" as="geometry" />
        </mxCell>
        <mxCell id="K5eOgZRje_PzOJEhZqbw-122" value="Create source url" style="text;html=1;strokeColor=none;fillColor=none;align=center;verticalAlign=middle;whiteSpace=wrap;rounded=0;" parent="1" vertex="1">
          <mxGeometry x="5060" y="1060" width="215" height="30" as="geometry" />
        </mxCell>
        <mxCell id="K5eOgZRje_PzOJEhZqbw-123" value="" style="rounded=1;whiteSpace=wrap;html=1;" parent="1" vertex="1">
          <mxGeometry x="5060" y="1097.5" width="225" height="10" as="geometry" />
        </mxCell>
        <mxCell id="K5eOgZRje_PzOJEhZqbw-124" value="&lt;font size=&quot;1&quot;&gt;Url:&lt;/font&gt;" style="text;html=1;strokeColor=none;fillColor=none;align=center;verticalAlign=middle;whiteSpace=wrap;rounded=0;" parent="1" vertex="1">
          <mxGeometry x="5040" y="1077.5" width="60" height="30" as="geometry" />
        </mxCell>
        <mxCell id="K5eOgZRje_PzOJEhZqbw-125" value="" style="rounded=1;whiteSpace=wrap;html=1;" parent="1" vertex="1">
          <mxGeometry x="5058.12" y="1127.5" width="226.88" height="10" as="geometry" />
        </mxCell>
        <mxCell id="K5eOgZRje_PzOJEhZqbw-126" value="&lt;font size=&quot;1&quot;&gt;Name:&lt;/font&gt;" style="text;html=1;strokeColor=none;fillColor=none;align=center;verticalAlign=middle;whiteSpace=wrap;rounded=0;" parent="1" vertex="1">
          <mxGeometry x="5050" y="1107.5" width="45" height="30" as="geometry" />
        </mxCell>
        <mxCell id="K5eOgZRje_PzOJEhZqbw-127" value="" style="rounded=1;whiteSpace=wrap;html=1;" parent="1" vertex="1">
          <mxGeometry x="5058.12" y="1157.5" width="226.88" height="10" as="geometry" />
        </mxCell>
        <mxCell id="K5eOgZRje_PzOJEhZqbw-128" value="&lt;font size=&quot;1&quot;&gt;Author:&lt;/font&gt;" style="text;html=1;strokeColor=none;fillColor=none;align=center;verticalAlign=middle;whiteSpace=wrap;rounded=0;" parent="1" vertex="1">
          <mxGeometry x="5042.5" y="1137.5" width="60" height="30" as="geometry" />
        </mxCell>
        <mxCell id="K5eOgZRje_PzOJEhZqbw-129" value="" style="rounded=1;whiteSpace=wrap;html=1;" parent="1" vertex="1">
          <mxGeometry x="5057.5" y="1187.5" width="227.5" height="10" as="geometry" />
        </mxCell>
        <mxCell id="K5eOgZRje_PzOJEhZqbw-130" value="&lt;font size=&quot;1&quot;&gt;Publisher:&lt;/font&gt;" style="text;html=1;strokeColor=none;fillColor=none;align=center;verticalAlign=middle;whiteSpace=wrap;rounded=0;" parent="1" vertex="1">
          <mxGeometry x="5050" y="1167.5" width="60" height="30" as="geometry" />
        </mxCell>
        <mxCell id="K5eOgZRje_PzOJEhZqbw-131" value="" style="rounded=1;whiteSpace=wrap;html=1;" parent="1" vertex="1">
          <mxGeometry x="5057.5" y="1222.5" width="227.5" height="10" as="geometry" />
        </mxCell>
        <mxCell id="K5eOgZRje_PzOJEhZqbw-132" value="&lt;font size=&quot;1&quot;&gt;Publisher year:&lt;/font&gt;" style="text;html=1;strokeColor=none;fillColor=none;align=center;verticalAlign=middle;whiteSpace=wrap;rounded=0;" parent="1" vertex="1">
          <mxGeometry x="5057.5" y="1197.5" width="75" height="30" as="geometry" />
        </mxCell>
        <mxCell id="K5eOgZRje_PzOJEhZqbw-133" value="&lt;font size=&quot;1&quot;&gt;Clear&lt;/font&gt;" style="rounded=1;whiteSpace=wrap;html=1;" parent="1" vertex="1">
          <mxGeometry x="5100" y="1247.5" width="60" height="20" as="geometry" />
        </mxCell>
        <mxCell id="K5eOgZRje_PzOJEhZqbw-134" value="&lt;font size=&quot;1&quot;&gt;Create&lt;/font&gt;" style="rounded=1;whiteSpace=wrap;html=1;" parent="1" vertex="1">
          <mxGeometry x="5177.5" y="1247.5" width="60" height="20" as="geometry" />
        </mxCell>
        <mxCell id="K5eOgZRje_PzOJEhZqbw-135" value="" style="rounded=1;whiteSpace=wrap;html=1;" parent="1" vertex="1">
          <mxGeometry x="5050" y="1297.5" width="245" height="225" as="geometry" />
        </mxCell>
        <mxCell id="K5eOgZRje_PzOJEhZqbw-136" value="Create source file" style="text;html=1;strokeColor=none;fillColor=none;align=center;verticalAlign=middle;whiteSpace=wrap;rounded=0;" parent="1" vertex="1">
          <mxGeometry x="5060" y="1297.5" width="215" height="30" as="geometry" />
        </mxCell>
        <mxCell id="K5eOgZRje_PzOJEhZqbw-137" value="" style="rounded=1;whiteSpace=wrap;html=1;" parent="1" vertex="1">
          <mxGeometry x="5060" y="1335" width="225" height="10" as="geometry" />
        </mxCell>
        <mxCell id="K5eOgZRje_PzOJEhZqbw-138" value="&lt;font size=&quot;1&quot;&gt;file:&lt;/font&gt;" style="text;html=1;strokeColor=none;fillColor=none;align=center;verticalAlign=middle;whiteSpace=wrap;rounded=0;" parent="1" vertex="1">
          <mxGeometry x="5040" y="1315" width="60" height="30" as="geometry" />
        </mxCell>
        <mxCell id="K5eOgZRje_PzOJEhZqbw-139" value="" style="rounded=1;whiteSpace=wrap;html=1;" parent="1" vertex="1">
          <mxGeometry x="5058.12" y="1365" width="226.88" height="10" as="geometry" />
        </mxCell>
        <mxCell id="K5eOgZRje_PzOJEhZqbw-140" value="&lt;font size=&quot;1&quot;&gt;Name:&lt;/font&gt;" style="text;html=1;strokeColor=none;fillColor=none;align=center;verticalAlign=middle;whiteSpace=wrap;rounded=0;" parent="1" vertex="1">
          <mxGeometry x="5050" y="1345" width="45" height="30" as="geometry" />
        </mxCell>
        <mxCell id="K5eOgZRje_PzOJEhZqbw-141" value="" style="rounded=1;whiteSpace=wrap;html=1;" parent="1" vertex="1">
          <mxGeometry x="5058.12" y="1395" width="226.88" height="10" as="geometry" />
        </mxCell>
        <mxCell id="K5eOgZRje_PzOJEhZqbw-142" value="&lt;font size=&quot;1&quot;&gt;Author:&lt;/font&gt;" style="text;html=1;strokeColor=none;fillColor=none;align=center;verticalAlign=middle;whiteSpace=wrap;rounded=0;" parent="1" vertex="1">
          <mxGeometry x="5042.5" y="1375" width="60" height="30" as="geometry" />
        </mxCell>
        <mxCell id="K5eOgZRje_PzOJEhZqbw-143" value="" style="rounded=1;whiteSpace=wrap;html=1;" parent="1" vertex="1">
          <mxGeometry x="5057.5" y="1425" width="227.5" height="10" as="geometry" />
        </mxCell>
        <mxCell id="K5eOgZRje_PzOJEhZqbw-144" value="&lt;font size=&quot;1&quot;&gt;Publisher:&lt;/font&gt;" style="text;html=1;strokeColor=none;fillColor=none;align=center;verticalAlign=middle;whiteSpace=wrap;rounded=0;" parent="1" vertex="1">
          <mxGeometry x="5050" y="1405" width="60" height="30" as="geometry" />
        </mxCell>
        <mxCell id="K5eOgZRje_PzOJEhZqbw-145" value="" style="rounded=1;whiteSpace=wrap;html=1;" parent="1" vertex="1">
          <mxGeometry x="5057.5" y="1460" width="227.5" height="10" as="geometry" />
        </mxCell>
        <mxCell id="K5eOgZRje_PzOJEhZqbw-146" value="&lt;font size=&quot;1&quot;&gt;Publisher year:&lt;/font&gt;" style="text;html=1;strokeColor=none;fillColor=none;align=center;verticalAlign=middle;whiteSpace=wrap;rounded=0;" parent="1" vertex="1">
          <mxGeometry x="5057.5" y="1435" width="75" height="30" as="geometry" />
        </mxCell>
        <mxCell id="K5eOgZRje_PzOJEhZqbw-147" value="&lt;font size=&quot;1&quot;&gt;Clear&lt;/font&gt;" style="rounded=1;whiteSpace=wrap;html=1;" parent="1" vertex="1">
          <mxGeometry x="5100" y="1485" width="60" height="20" as="geometry" />
        </mxCell>
        <mxCell id="K5eOgZRje_PzOJEhZqbw-148" value="&lt;font size=&quot;1&quot;&gt;Create&lt;/font&gt;" style="rounded=1;whiteSpace=wrap;html=1;" parent="1" vertex="1">
          <mxGeometry x="5177.5" y="1485" width="60" height="20" as="geometry" />
        </mxCell>
        <mxCell id="K5eOgZRje_PzOJEhZqbw-149" value="---" style="rounded=1;whiteSpace=wrap;html=1;" parent="1" vertex="1">
          <mxGeometry x="5265" y="1336" width="20" height="8" as="geometry" />
        </mxCell>
        <mxCell id="1hsXzxKCKnJVlKgYQzL8-1" value="" style="rounded=1;whiteSpace=wrap;html=1;" parent="1" vertex="1">
          <mxGeometry x="1821.56" y="1757.5" width="228.44" height="40" as="geometry" />
        </mxCell>
        <mxCell id="1hsXzxKCKnJVlKgYQzL8-2" value="&lt;font style=&quot;font-size: 10px;&quot;&gt;Tags: (seperate by ,)&lt;/font&gt;" style="text;html=1;strokeColor=none;fillColor=none;align=center;verticalAlign=middle;whiteSpace=wrap;rounded=0;" parent="1" vertex="1">
          <mxGeometry x="1810" y="1735" width="120" height="30" as="geometry" />
        </mxCell>
        <mxCell id="1hsXzxKCKnJVlKgYQzL8-5" value="" style="rounded=1;whiteSpace=wrap;html=1;fillColor=#F5F5F5;" parent="1" vertex="1">
          <mxGeometry x="1040" y="1320" width="120" height="60" as="geometry" />
        </mxCell>
        <mxCell id="1hsXzxKCKnJVlKgYQzL8-6" value="&lt;font color=&quot;#3498db&quot;&gt;X&lt;/font&gt;" style="text;html=1;strokeColor=none;fillColor=none;align=center;verticalAlign=middle;whiteSpace=wrap;rounded=0;" parent="1" vertex="1">
          <mxGeometry x="1135" y="1322" width="20" height="16" as="geometry" />
        </mxCell>
        <mxCell id="uQ3wynb4Wp6j9YUOQWjD-62" style="edgeStyle=orthogonalEdgeStyle;rounded=0;orthogonalLoop=1;jettySize=auto;html=1;exitX=1;exitY=0.5;exitDx=0;exitDy=0;" parent="1" source="1hsXzxKCKnJVlKgYQzL8-7" edge="1">
          <mxGeometry relative="1" as="geometry">
            <mxPoint x="1120" y="1110" as="targetPoint" />
          </mxGeometry>
        </mxCell>
        <mxCell id="uQ3wynb4Wp6j9YUOQWjD-77" value="Viewing expanded Note" style="edgeLabel;html=1;align=center;verticalAlign=middle;resizable=0;points=[];" parent="uQ3wynb4Wp6j9YUOQWjD-62" vertex="1" connectable="0">
          <mxGeometry x="0.6044" y="4" relative="1" as="geometry">
            <mxPoint as="offset" />
          </mxGeometry>
        </mxCell>
        <mxCell id="1hsXzxKCKnJVlKgYQzL8-7" value="&lt;font color=&quot;#3498db&quot;&gt;&lt;span style=&quot;font-size: 6px;&quot;&gt;...&lt;/span&gt;&lt;/font&gt;" style="text;html=1;strokeColor=none;fillColor=none;align=center;verticalAlign=middle;whiteSpace=wrap;rounded=0;" parent="1" vertex="1">
          <mxGeometry x="1100" y="1362" width="65" height="18" as="geometry" />
        </mxCell>
        <mxCell id="1hsXzxKCKnJVlKgYQzL8-9" value="" style="rounded=1;whiteSpace=wrap;html=1;" parent="1" vertex="1">
          <mxGeometry x="4070" y="1595" width="250" height="262.5" as="geometry" />
        </mxCell>
        <mxCell id="1hsXzxKCKnJVlKgYQzL8-10" value="Create Note" style="text;html=1;strokeColor=none;fillColor=none;align=center;verticalAlign=middle;whiteSpace=wrap;rounded=0;" parent="1" vertex="1">
          <mxGeometry x="4130" y="1607.5" width="130" height="30" as="geometry" />
        </mxCell>
        <mxCell id="1hsXzxKCKnJVlKgYQzL8-11" value="" style="rounded=1;whiteSpace=wrap;html=1;" parent="1" vertex="1">
          <mxGeometry x="4081.56" y="1647.5" width="226.88" height="10" as="geometry" />
        </mxCell>
        <mxCell id="1hsXzxKCKnJVlKgYQzL8-12" value="&lt;font size=&quot;1&quot;&gt;Title:&lt;/font&gt;" style="text;html=1;strokeColor=none;fillColor=none;align=center;verticalAlign=middle;whiteSpace=wrap;rounded=0;" parent="1" vertex="1">
          <mxGeometry x="4070" y="1627.5" width="45" height="30" as="geometry" />
        </mxCell>
        <mxCell id="1hsXzxKCKnJVlKgYQzL8-13" value="" style="rounded=1;whiteSpace=wrap;html=1;" parent="1" vertex="1">
          <mxGeometry x="4080.7799999999997" y="1685" width="228.44" height="60" as="geometry" />
        </mxCell>
        <mxCell id="1hsXzxKCKnJVlKgYQzL8-14" value="&lt;font size=&quot;1&quot;&gt;Content:&lt;/font&gt;" style="text;html=1;strokeColor=none;fillColor=none;align=center;verticalAlign=middle;whiteSpace=wrap;rounded=0;" parent="1" vertex="1">
          <mxGeometry x="4080.5" y="1657.5" width="45" height="30" as="geometry" />
        </mxCell>
        <mxCell id="1hsXzxKCKnJVlKgYQzL8-15" value="&lt;font size=&quot;1&quot;&gt;Clear&lt;/font&gt;" style="rounded=1;whiteSpace=wrap;html=1;" parent="1" vertex="1">
          <mxGeometry x="4115" y="1815" width="60" height="20" as="geometry" />
        </mxCell>
        <mxCell id="1hsXzxKCKnJVlKgYQzL8-16" value="&lt;font size=&quot;1&quot;&gt;Create&lt;/font&gt;" style="rounded=1;whiteSpace=wrap;html=1;" parent="1" vertex="1">
          <mxGeometry x="4220" y="1815" width="60" height="20" as="geometry" />
        </mxCell>
        <mxCell id="1hsXzxKCKnJVlKgYQzL8-17" value="" style="rounded=1;whiteSpace=wrap;html=1;" parent="1" vertex="1">
          <mxGeometry x="4081.56" y="1765" width="228.44" height="40" as="geometry" />
        </mxCell>
        <mxCell id="1hsXzxKCKnJVlKgYQzL8-18" value="&lt;font style=&quot;font-size: 10px;&quot;&gt;Tags: (seperate by ,)&lt;/font&gt;" style="text;html=1;strokeColor=none;fillColor=none;align=center;verticalAlign=middle;whiteSpace=wrap;rounded=0;" parent="1" vertex="1">
          <mxGeometry x="4070" y="1742.5" width="120" height="30" as="geometry" />
        </mxCell>
        <mxCell id="1hsXzxKCKnJVlKgYQzL8-19" value="" style="whiteSpace=wrap;html=1;aspect=fixed;" parent="1" vertex="1">
          <mxGeometry x="1320" y="767.5" width="430" height="430" as="geometry" />
        </mxCell>
        <mxCell id="1hsXzxKCKnJVlKgYQzL8-20" value="" style="rounded=0;whiteSpace=wrap;html=1;fillColor=#3498db;strokeColor=#6c8ebf;" parent="1" vertex="1">
          <mxGeometry x="1320" y="767.5" width="430" height="40" as="geometry" />
        </mxCell>
        <mxCell id="1hsXzxKCKnJVlKgYQzL8-21" value="&lt;font color=&quot;#fff7fe&quot;&gt;Capstone&lt;/font&gt;" style="text;html=1;strokeColor=none;fillColor=none;align=center;verticalAlign=middle;whiteSpace=wrap;rounded=0;" parent="1" vertex="1">
          <mxGeometry x="1320" y="772.5" width="60" height="30" as="geometry" />
        </mxCell>
        <mxCell id="1hsXzxKCKnJVlKgYQzL8-22" value="&lt;font color=&quot;#ffffff&quot; style=&quot;font-size: 8px;&quot;&gt;Home&lt;/font&gt;" style="text;html=1;strokeColor=none;fillColor=none;align=center;verticalAlign=middle;whiteSpace=wrap;rounded=0;" parent="1" vertex="1">
          <mxGeometry x="1380" y="770" width="60" height="30" as="geometry" />
        </mxCell>
        <mxCell id="1hsXzxKCKnJVlKgYQzL8-23" value="&lt;span style=&quot;font-size: 8px;&quot;&gt;&lt;font color=&quot;#fffafa&quot;&gt;Sources&lt;/font&gt;&lt;/span&gt;" style="text;html=1;strokeColor=none;fillColor=none;align=center;verticalAlign=middle;whiteSpace=wrap;rounded=0;" parent="1" vertex="1">
          <mxGeometry x="1470" y="770" width="60" height="30" as="geometry" />
        </mxCell>
        <mxCell id="1hsXzxKCKnJVlKgYQzL8-25" value="&lt;font color=&quot;#ffffff&quot; style=&quot;font-size: 8px;&quot;&gt;Logout&lt;/font&gt;" style="text;html=1;strokeColor=none;fillColor=none;align=center;verticalAlign=middle;whiteSpace=wrap;rounded=0;" parent="1" vertex="1">
          <mxGeometry x="1690" y="770" width="60" height="30" as="geometry" />
        </mxCell>
        <mxCell id="1hsXzxKCKnJVlKgYQzL8-26" value="" style="rounded=0;whiteSpace=wrap;html=1;fillColor=#333;" parent="1" vertex="1">
          <mxGeometry x="1320" y="807.5" width="430" height="72.5" as="geometry" />
        </mxCell>
        <mxCell id="1hsXzxKCKnJVlKgYQzL8-27" value="&lt;font style=&quot;font-size: 16px;&quot; color=&quot;#ffffff&quot;&gt;Notes&lt;/font&gt;" style="text;html=1;strokeColor=none;fillColor=none;align=center;verticalAlign=middle;whiteSpace=wrap;rounded=0;" parent="1" vertex="1">
          <mxGeometry x="1485" y="807.5" width="95" height="45" as="geometry" />
        </mxCell>
        <mxCell id="1hsXzxKCKnJVlKgYQzL8-28" value="&lt;font style=&quot;font-size: 8px;&quot;&gt;search by title&lt;/font&gt;" style="rounded=0;whiteSpace=wrap;html=1;strokeColor=none;" parent="1" vertex="1">
          <mxGeometry x="1348.12" y="847.5" width="281.88" height="10" as="geometry" />
        </mxCell>
        <mxCell id="1hsXzxKCKnJVlKgYQzL8-29" value="&lt;font style=&quot;font-size: 7px;&quot; color=&quot;#ffffff&quot;&gt;Search&lt;/font&gt;" style="rounded=1;whiteSpace=wrap;html=1;align=center;fillColor=#3498db;strokeColor=none;" parent="1" vertex="1">
          <mxGeometry x="1640" y="846.25" width="30" height="12.5" as="geometry" />
        </mxCell>
        <mxCell id="1hsXzxKCKnJVlKgYQzL8-30" value="Note" style="rounded=1;whiteSpace=wrap;html=1;" parent="1" vertex="1">
          <mxGeometry x="1335" y="920" width="125" height="60" as="geometry" />
        </mxCell>
        <mxCell id="1hsXzxKCKnJVlKgYQzL8-31" value="Note" style="rounded=1;whiteSpace=wrap;html=1;" parent="1" vertex="1">
          <mxGeometry x="1470" y="920" width="120" height="60" as="geometry" />
        </mxCell>
        <mxCell id="1hsXzxKCKnJVlKgYQzL8-91" style="edgeStyle=orthogonalEdgeStyle;rounded=0;orthogonalLoop=1;jettySize=auto;html=1;exitX=0.5;exitY=1;exitDx=0;exitDy=0;entryX=0.463;entryY=0.016;entryDx=0;entryDy=0;entryPerimeter=0;" parent="1" source="1hsXzxKCKnJVlKgYQzL8-32" target="1hsXzxKCKnJVlKgYQzL8-77" edge="1">
          <mxGeometry relative="1" as="geometry" />
        </mxCell>
        <mxCell id="1hsXzxKCKnJVlKgYQzL8-92" value="User filters notes by tags" style="edgeLabel;html=1;align=center;verticalAlign=middle;resizable=0;points=[];" parent="1hsXzxKCKnJVlKgYQzL8-91" vertex="1" connectable="0">
          <mxGeometry x="-0.0635" y="-3" relative="1" as="geometry">
            <mxPoint as="offset" />
          </mxGeometry>
        </mxCell>
        <mxCell id="1hsXzxKCKnJVlKgYQzL8-32" value="&lt;font color=&quot;#ffffff&quot;&gt;filter&lt;/font&gt;" style="rounded=1;whiteSpace=wrap;html=1;fillColor=#3498DB;strokeColor=none;" parent="1" vertex="1">
          <mxGeometry x="1678.12" y="846.25" width="30" height="11.5" as="geometry" />
        </mxCell>
        <mxCell id="1hsXzxKCKnJVlKgYQzL8-34" value="&lt;font color=&quot;#ffffff&quot;&gt;&amp;nbsp;tag1&amp;nbsp; &amp;nbsp;X&lt;/font&gt;" style="rounded=1;whiteSpace=wrap;html=1;fillColor=#3498DB;strokeColor=none;align=left;" parent="1" vertex="1">
          <mxGeometry x="1348.12" y="860" width="51.88" height="20" as="geometry" />
        </mxCell>
        <mxCell id="1hsXzxKCKnJVlKgYQzL8-38" value="&lt;font color=&quot;#fffafa&quot;&gt;&lt;span style=&quot;font-size: 8px;&quot;&gt;Notes&lt;br&gt;&lt;/span&gt;&lt;/font&gt;" style="text;html=1;strokeColor=none;fillColor=none;align=center;verticalAlign=middle;whiteSpace=wrap;rounded=0;" parent="1" vertex="1">
          <mxGeometry x="420" y="1250" width="60" height="30" as="geometry" />
        </mxCell>
        <mxCell id="1hsXzxKCKnJVlKgYQzL8-39" value="&lt;font color=&quot;#fffafa&quot;&gt;&lt;span style=&quot;font-size: 8px;&quot;&gt;Notes&lt;br&gt;&lt;/span&gt;&lt;/font&gt;" style="text;html=1;strokeColor=none;fillColor=none;align=center;verticalAlign=middle;whiteSpace=wrap;rounded=0;" parent="1" vertex="1">
          <mxGeometry x="980" y="1243.75" width="60" height="30" as="geometry" />
        </mxCell>
        <mxCell id="1hsXzxKCKnJVlKgYQzL8-40" value="&lt;font color=&quot;#fffafa&quot;&gt;&lt;span style=&quot;font-size: 8px;&quot;&gt;Notes&lt;br&gt;&lt;/span&gt;&lt;/font&gt;" style="text;html=1;strokeColor=none;fillColor=none;align=center;verticalAlign=middle;whiteSpace=wrap;rounded=0;" parent="1" vertex="1">
          <mxGeometry x="1525" y="770" width="60" height="30" as="geometry" />
        </mxCell>
        <mxCell id="1hsXzxKCKnJVlKgYQzL8-52" value="" style="whiteSpace=wrap;html=1;aspect=fixed;" parent="1" vertex="1">
          <mxGeometry x="4455" y="1537.5" width="440" height="440" as="geometry" />
        </mxCell>
        <mxCell id="1hsXzxKCKnJVlKgYQzL8-53" value="" style="rounded=0;whiteSpace=wrap;html=1;fillColor=#3498db;strokeColor=#6c8ebf;" parent="1" vertex="1">
          <mxGeometry x="4455" y="1537.5" width="440" height="40" as="geometry" />
        </mxCell>
        <mxCell id="1hsXzxKCKnJVlKgYQzL8-54" value="&lt;span style=&quot;font-size: 8px;&quot;&gt;&lt;font color=&quot;#fffafa&quot;&gt;Sources&lt;/font&gt;&lt;/span&gt;" style="text;html=1;strokeColor=none;fillColor=none;align=center;verticalAlign=middle;whiteSpace=wrap;rounded=0;" parent="1" vertex="1">
          <mxGeometry x="4455" y="1542.5" width="60" height="30" as="geometry" />
        </mxCell>
        <mxCell id="1hsXzxKCKnJVlKgYQzL8-55" value="&lt;font color=&quot;#ffffff&quot; style=&quot;font-size: 8px;&quot;&gt;Logout&lt;/font&gt;" style="text;html=1;strokeColor=none;fillColor=none;align=center;verticalAlign=middle;whiteSpace=wrap;rounded=0;" parent="1" vertex="1">
          <mxGeometry x="4822.5" y="1542.5" width="60" height="30" as="geometry" />
        </mxCell>
        <mxCell id="1hsXzxKCKnJVlKgYQzL8-56" value="Notes" style="text;html=1;strokeColor=none;fillColor=none;align=center;verticalAlign=middle;whiteSpace=wrap;rounded=0;" parent="1" vertex="1">
          <mxGeometry x="4615" y="1587.5" width="120" height="30" as="geometry" />
        </mxCell>
        <mxCell id="1hsXzxKCKnJVlKgYQzL8-57" value="" style="rounded=1;whiteSpace=wrap;html=1;" parent="1" vertex="1">
          <mxGeometry x="4485" y="1685" width="370" height="255" as="geometry" />
        </mxCell>
        <mxCell id="1hsXzxKCKnJVlKgYQzL8-58" value="&lt;font color=&quot;#ebfffa&quot;&gt;Reset&lt;/font&gt;" style="rounded=1;whiteSpace=wrap;html=1;strokeColor=#3498db;fillStyle=solid;fillColor=#3498DB;" parent="1" vertex="1">
          <mxGeometry x="4840" y="1632.5" width="50" height="20" as="geometry" />
        </mxCell>
        <mxCell id="1hsXzxKCKnJVlKgYQzL8-61" value="" style="rounded=0;whiteSpace=wrap;html=1;" parent="1" vertex="1">
          <mxGeometry x="3880" y="1450" width="110" height="50" as="geometry" />
        </mxCell>
        <mxCell id="1hsXzxKCKnJVlKgYQzL8-64" style="edgeStyle=orthogonalEdgeStyle;rounded=0;orthogonalLoop=1;jettySize=auto;html=1;exitX=1;exitY=0.5;exitDx=0;exitDy=0;entryX=0.385;entryY=0.087;entryDx=0;entryDy=0;entryPerimeter=0;" parent="1" source="1hsXzxKCKnJVlKgYQzL8-62" target="1hsXzxKCKnJVlKgYQzL8-53" edge="1">
          <mxGeometry relative="1" as="geometry" />
        </mxCell>
        <mxCell id="1hsXzxKCKnJVlKgYQzL8-70" value="takes user to the notes page with prefilled out filters&amp;nbsp;" style="edgeLabel;html=1;align=center;verticalAlign=middle;resizable=0;points=[];" parent="1hsXzxKCKnJVlKgYQzL8-64" vertex="1" connectable="0">
          <mxGeometry x="0.1744" relative="1" as="geometry">
            <mxPoint as="offset" />
          </mxGeometry>
        </mxCell>
        <mxCell id="1hsXzxKCKnJVlKgYQzL8-62" value="&lt;font color=&quot;#3498db&quot; style=&quot;font-size: 6px;&quot;&gt;more like this&lt;/font&gt;" style="text;html=1;strokeColor=none;fillColor=none;align=center;verticalAlign=middle;whiteSpace=wrap;rounded=0;" parent="1" vertex="1">
          <mxGeometry x="3930" y="1482" width="65" height="18" as="geometry" />
        </mxCell>
        <mxCell id="1hsXzxKCKnJVlKgYQzL8-63" value="&lt;font color=&quot;#3498db&quot;&gt;X&lt;/font&gt;" style="text;html=1;strokeColor=none;fillColor=none;align=center;verticalAlign=middle;whiteSpace=wrap;rounded=0;" parent="1" vertex="1">
          <mxGeometry x="3970" y="1454" width="20" height="16" as="geometry" />
        </mxCell>
        <mxCell id="1hsXzxKCKnJVlKgYQzL8-65" value="&lt;span style=&quot;font-size: 8px;&quot;&gt;&lt;font color=&quot;#fffafa&quot;&gt;Notes&lt;/font&gt;&lt;/span&gt;" style="text;html=1;strokeColor=none;fillColor=none;align=center;verticalAlign=middle;whiteSpace=wrap;rounded=0;" parent="1" vertex="1">
          <mxGeometry x="4505" y="1542.5" width="60" height="30" as="geometry" />
        </mxCell>
        <mxCell id="1hsXzxKCKnJVlKgYQzL8-66" value="&lt;span style=&quot;font-size: 8px;&quot;&gt;&lt;font color=&quot;#fffafa&quot;&gt;Notes&lt;/font&gt;&lt;/span&gt;" style="text;html=1;strokeColor=none;fillColor=none;align=center;verticalAlign=middle;whiteSpace=wrap;rounded=0;" parent="1" vertex="1">
          <mxGeometry x="4100" y="695" width="60" height="30" as="geometry" />
        </mxCell>
        <mxCell id="1hsXzxKCKnJVlKgYQzL8-75" style="edgeStyle=orthogonalEdgeStyle;rounded=0;orthogonalLoop=1;jettySize=auto;html=1;exitX=0.75;exitY=1;exitDx=0;exitDy=0;" parent="1" source="1hsXzxKCKnJVlKgYQzL8-67" target="1hsXzxKCKnJVlKgYQzL8-53" edge="1">
          <mxGeometry relative="1" as="geometry">
            <Array as="points">
              <mxPoint x="3629" y="1136" />
              <mxPoint x="4620" y="1136" />
            </Array>
          </mxGeometry>
        </mxCell>
        <mxCell id="1hsXzxKCKnJVlKgYQzL8-76" value="if user selects note page" style="edgeLabel;html=1;align=center;verticalAlign=middle;resizable=0;points=[];" parent="1hsXzxKCKnJVlKgYQzL8-75" vertex="1" connectable="0">
          <mxGeometry x="0.614" y="-1" relative="1" as="geometry">
            <mxPoint as="offset" />
          </mxGeometry>
        </mxCell>
        <mxCell id="1hsXzxKCKnJVlKgYQzL8-67" value="&lt;span style=&quot;font-size: 8px;&quot;&gt;&lt;font color=&quot;#fffafa&quot;&gt;Notes&lt;/font&gt;&lt;/span&gt;" style="text;html=1;strokeColor=none;fillColor=none;align=center;verticalAlign=middle;whiteSpace=wrap;rounded=0;" parent="1" vertex="1">
          <mxGeometry x="3584.38" y="705" width="60" height="30" as="geometry" />
        </mxCell>
        <mxCell id="1hsXzxKCKnJVlKgYQzL8-71" value="" style="rounded=1;whiteSpace=wrap;html=1;align=left;" parent="1" vertex="1">
          <mxGeometry x="4515" y="1632.5" width="205" height="20" as="geometry" />
        </mxCell>
        <mxCell id="1hsXzxKCKnJVlKgYQzL8-101" style="edgeStyle=orthogonalEdgeStyle;rounded=0;orthogonalLoop=1;jettySize=auto;html=1;exitX=0.75;exitY=0;exitDx=0;exitDy=0;entryX=0.562;entryY=-0.026;entryDx=0;entryDy=0;entryPerimeter=0;" parent="1" source="1hsXzxKCKnJVlKgYQzL8-72" target="1hsXzxKCKnJVlKgYQzL8-93" edge="1">
          <mxGeometry relative="1" as="geometry" />
        </mxCell>
        <mxCell id="1hsXzxKCKnJVlKgYQzL8-103" value="user filters by tags" style="edgeLabel;html=1;align=center;verticalAlign=middle;resizable=0;points=[];" parent="1hsXzxKCKnJVlKgYQzL8-101" vertex="1" connectable="0">
          <mxGeometry x="0.2388" y="1" relative="1" as="geometry">
            <mxPoint as="offset" />
          </mxGeometry>
        </mxCell>
        <mxCell id="1hsXzxKCKnJVlKgYQzL8-72" value="&lt;font color=&quot;#ebfffa&quot;&gt;Filter&lt;/font&gt;" style="rounded=1;whiteSpace=wrap;html=1;strokeColor=#3498db;fillStyle=solid;fillColor=#3498DB;" parent="1" vertex="1">
          <mxGeometry x="4725" y="1632.5" width="50" height="20" as="geometry" />
        </mxCell>
        <mxCell id="1hsXzxKCKnJVlKgYQzL8-74" value="&lt;font color=&quot;#ffffff&quot;&gt;&amp;nbsp;tag1&amp;nbsp; &amp;nbsp;X&lt;/font&gt;" style="rounded=1;whiteSpace=wrap;html=1;fillColor=#3498DB;strokeColor=none;align=left;" parent="1" vertex="1">
          <mxGeometry x="4513.12" y="1657.5" width="51.88" height="20" as="geometry" />
        </mxCell>
        <mxCell id="1hsXzxKCKnJVlKgYQzL8-77" value="" style="rounded=1;whiteSpace=wrap;html=1;" parent="1" vertex="1">
          <mxGeometry x="1930" y="904" width="160" height="176" as="geometry" />
        </mxCell>
        <mxCell id="1hsXzxKCKnJVlKgYQzL8-82" value="" style="rounded=1;whiteSpace=wrap;html=1;" parent="1" vertex="1">
          <mxGeometry x="1950" y="970" width="120" height="10" as="geometry" />
        </mxCell>
        <mxCell id="1hsXzxKCKnJVlKgYQzL8-83" value="" style="rounded=1;whiteSpace=wrap;html=1;" parent="1" vertex="1">
          <mxGeometry x="1950" y="987" width="120" height="10" as="geometry" />
        </mxCell>
        <mxCell id="1hsXzxKCKnJVlKgYQzL8-84" value="" style="rounded=1;whiteSpace=wrap;html=1;" parent="1" vertex="1">
          <mxGeometry x="1950" y="1010" width="120" height="10" as="geometry" />
        </mxCell>
        <mxCell id="1hsXzxKCKnJVlKgYQzL8-86" value="" style="rounded=1;whiteSpace=wrap;html=1;fillColor=none;" parent="1" vertex="1">
          <mxGeometry x="1945" y="960" width="130" height="82" as="geometry" />
        </mxCell>
        <mxCell id="1hsXzxKCKnJVlKgYQzL8-87" value="filter by tags" style="text;html=1;strokeColor=none;fillColor=none;align=center;verticalAlign=middle;whiteSpace=wrap;rounded=0;" parent="1" vertex="1">
          <mxGeometry x="1970" y="920" width="90" height="30" as="geometry" />
        </mxCell>
        <mxCell id="1hsXzxKCKnJVlKgYQzL8-88" value="clear" style="rounded=1;whiteSpace=wrap;html=1;" parent="1" vertex="1">
          <mxGeometry x="1950" y="1050" width="50" height="20" as="geometry" />
        </mxCell>
        <mxCell id="1hsXzxKCKnJVlKgYQzL8-89" value="filter" style="rounded=1;whiteSpace=wrap;html=1;" parent="1" vertex="1">
          <mxGeometry x="2020" y="1050" width="50" height="20" as="geometry" />
        </mxCell>
        <mxCell id="1hsXzxKCKnJVlKgYQzL8-93" value="" style="rounded=1;whiteSpace=wrap;html=1;" parent="1" vertex="1">
          <mxGeometry x="4990" y="1627.5" width="160" height="176" as="geometry" />
        </mxCell>
        <mxCell id="1hsXzxKCKnJVlKgYQzL8-94" value="" style="rounded=1;whiteSpace=wrap;html=1;" parent="1" vertex="1">
          <mxGeometry x="5010" y="1693.5" width="120" height="10" as="geometry" />
        </mxCell>
        <mxCell id="1hsXzxKCKnJVlKgYQzL8-95" value="" style="rounded=1;whiteSpace=wrap;html=1;" parent="1" vertex="1">
          <mxGeometry x="5010" y="1710.5" width="120" height="10" as="geometry" />
        </mxCell>
        <mxCell id="1hsXzxKCKnJVlKgYQzL8-96" value="" style="rounded=1;whiteSpace=wrap;html=1;" parent="1" vertex="1">
          <mxGeometry x="5010" y="1733.5" width="120" height="10" as="geometry" />
        </mxCell>
        <mxCell id="1hsXzxKCKnJVlKgYQzL8-97" value="" style="rounded=1;whiteSpace=wrap;html=1;fillColor=none;" parent="1" vertex="1">
          <mxGeometry x="5005" y="1683.5" width="130" height="82" as="geometry" />
        </mxCell>
        <mxCell id="1hsXzxKCKnJVlKgYQzL8-98" value="filter by tags" style="text;html=1;strokeColor=none;fillColor=none;align=center;verticalAlign=middle;whiteSpace=wrap;rounded=0;" parent="1" vertex="1">
          <mxGeometry x="5030" y="1643.5" width="90" height="30" as="geometry" />
        </mxCell>
        <mxCell id="1hsXzxKCKnJVlKgYQzL8-99" value="clear" style="rounded=1;whiteSpace=wrap;html=1;" parent="1" vertex="1">
          <mxGeometry x="5010" y="1773.5" width="50" height="20" as="geometry" />
        </mxCell>
        <mxCell id="1hsXzxKCKnJVlKgYQzL8-100" value="filter" style="rounded=1;whiteSpace=wrap;html=1;" parent="1" vertex="1">
          <mxGeometry x="5080" y="1773.5" width="50" height="20" as="geometry" />
        </mxCell>
        <mxCell id="EAzFyPNrNZyomjQ2vo2r-1" value="&lt;font style=&quot;font-size: 7px;&quot; color=&quot;#ffffff&quot;&gt;Reset&lt;/font&gt;" style="rounded=1;whiteSpace=wrap;html=1;align=center;fillColor=#3498db;strokeColor=none;" parent="1" vertex="1">
          <mxGeometry x="1720" y="846.25" width="30" height="12.5" as="geometry" />
        </mxCell>
        <mxCell id="EAzFyPNrNZyomjQ2vo2r-2" value="Note" style="rounded=1;whiteSpace=wrap;html=1;" parent="1" vertex="1">
          <mxGeometry x="1600" y="920" width="128.12" height="60" as="geometry" />
        </mxCell>
        <mxCell id="EAzFyPNrNZyomjQ2vo2r-4" value="&lt;font color=&quot;#ebfffa&quot;&gt;Search&lt;/font&gt;" style="rounded=1;whiteSpace=wrap;html=1;strokeColor=#3498db;fillStyle=solid;fillColor=#3498DB;" parent="1" vertex="1">
          <mxGeometry x="4785" y="1632.5" width="50" height="20" as="geometry" />
        </mxCell>
        <mxCell id="EAzFyPNrNZyomjQ2vo2r-5" value="Note" style="rounded=1;whiteSpace=wrap;html=1;" parent="1" vertex="1">
          <mxGeometry x="4620" y="1708.75" width="105" height="52.5" as="geometry" />
        </mxCell>
        <mxCell id="EAzFyPNrNZyomjQ2vo2r-6" value="Note" style="rounded=1;whiteSpace=wrap;html=1;" parent="1" vertex="1">
          <mxGeometry x="4505" y="1708.75" width="105" height="52.5" as="geometry" />
        </mxCell>
        <mxCell id="EAzFyPNrNZyomjQ2vo2r-7" value="Note" style="rounded=1;whiteSpace=wrap;html=1;" parent="1" vertex="1">
          <mxGeometry x="4732.5" y="1708.75" width="105" height="52.5" as="geometry" />
        </mxCell>
        <mxCell id="9ISQ2U6gShZRYcZddjkD-6" value="" style="whiteSpace=wrap;html=1;aspect=fixed;" parent="1" vertex="1">
          <mxGeometry x="260" y="735" width="430" height="430" as="geometry" />
        </mxCell>
        <mxCell id="9ISQ2U6gShZRYcZddjkD-7" value="" style="rounded=0;whiteSpace=wrap;html=1;fillColor=#3498db;strokeColor=#6c8ebf;" parent="1" vertex="1">
          <mxGeometry x="260" y="735" width="430" height="40" as="geometry" />
        </mxCell>
        <mxCell id="9ISQ2U6gShZRYcZddjkD-8" value="&lt;font color=&quot;#fff7fe&quot;&gt;Capstone&lt;/font&gt;" style="text;html=1;strokeColor=none;fillColor=none;align=center;verticalAlign=middle;whiteSpace=wrap;rounded=0;" parent="1" vertex="1">
          <mxGeometry x="260" y="740" width="60" height="30" as="geometry" />
        </mxCell>
        <mxCell id="9ISQ2U6gShZRYcZddjkD-9" value="&lt;font color=&quot;#ffffff&quot; style=&quot;font-size: 8px;&quot;&gt;Home&lt;/font&gt;" style="text;html=1;strokeColor=none;fillColor=none;align=center;verticalAlign=middle;whiteSpace=wrap;rounded=0;" parent="1" vertex="1">
          <mxGeometry x="315" y="740" width="60" height="30" as="geometry" />
        </mxCell>
        <mxCell id="9ISQ2U6gShZRYcZddjkD-10" value="&lt;span style=&quot;font-size: 8px;&quot;&gt;&lt;font color=&quot;#fffafa&quot;&gt;Sources&lt;/font&gt;&lt;/span&gt;" style="text;html=1;strokeColor=none;fillColor=none;align=center;verticalAlign=middle;whiteSpace=wrap;rounded=0;" parent="1" vertex="1">
          <mxGeometry x="412.5" y="740" width="60" height="30" as="geometry" />
        </mxCell>
        <mxCell id="9ISQ2U6gShZRYcZddjkD-12" value="&lt;font color=&quot;#ffffff&quot; style=&quot;font-size: 8px;&quot;&gt;Logout&lt;/font&gt;" style="text;html=1;strokeColor=none;fillColor=none;align=center;verticalAlign=middle;whiteSpace=wrap;rounded=0;" parent="1" vertex="1">
          <mxGeometry x="610" y="740" width="60" height="30" as="geometry" />
        </mxCell>
        <mxCell id="9ISQ2U6gShZRYcZddjkD-13" value="" style="rounded=0;whiteSpace=wrap;html=1;fillColor=#333;" parent="1" vertex="1">
          <mxGeometry x="260" y="775" width="430" height="60" as="geometry" />
        </mxCell>
        <mxCell id="9ISQ2U6gShZRYcZddjkD-14" value="&lt;font color=&quot;#ffffff&quot;&gt;&lt;span style=&quot;font-size: 16px;&quot;&gt;Projects&lt;/span&gt;&lt;/font&gt;" style="text;html=1;strokeColor=none;fillColor=none;align=center;verticalAlign=middle;whiteSpace=wrap;rounded=0;" parent="1" vertex="1">
          <mxGeometry x="425" y="775" width="95" height="45" as="geometry" />
        </mxCell>
        <mxCell id="9ISQ2U6gShZRYcZddjkD-15" value="" style="rounded=0;whiteSpace=wrap;html=1;strokeColor=none;" parent="1" vertex="1">
          <mxGeometry x="270" y="815" width="370" height="10" as="geometry" />
        </mxCell>
        <mxCell id="uQ3wynb4Wp6j9YUOQWjD-9" style="edgeStyle=orthogonalEdgeStyle;rounded=0;orthogonalLoop=1;jettySize=auto;html=1;exitX=1;exitY=0.25;exitDx=0;exitDy=0;" parent="1" source="9ISQ2U6gShZRYcZddjkD-16" edge="1">
          <mxGeometry relative="1" as="geometry">
            <mxPoint x="910" y="810" as="targetPoint" />
          </mxGeometry>
        </mxCell>
        <mxCell id="uQ3wynb4Wp6j9YUOQWjD-19" value="Create Dialog" style="edgeLabel;html=1;align=center;verticalAlign=middle;resizable=0;points=[];" parent="uQ3wynb4Wp6j9YUOQWjD-9" vertex="1" connectable="0">
          <mxGeometry x="-0.512" y="-3" relative="1" as="geometry">
            <mxPoint as="offset" />
          </mxGeometry>
        </mxCell>
        <mxCell id="9ISQ2U6gShZRYcZddjkD-16" value="&lt;font color=&quot;#ffffff&quot; style=&quot;font-size: 4px;&quot;&gt;Add Source&lt;/font&gt;" style="rounded=1;whiteSpace=wrap;html=1;align=center;fillColor=#3498db;strokeColor=none;" parent="1" vertex="1">
          <mxGeometry x="650" y="815" width="30" height="10" as="geometry" />
        </mxCell>
        <mxCell id="uQ3wynb4Wp6j9YUOQWjD-20" style="edgeStyle=orthogonalEdgeStyle;rounded=0;orthogonalLoop=1;jettySize=auto;html=1;exitX=0;exitY=0.5;exitDx=0;exitDy=0;" parent="1" source="9ISQ2U6gShZRYcZddjkD-17" edge="1">
          <mxGeometry relative="1" as="geometry">
            <mxPoint x="-80" y="920" as="targetPoint" />
          </mxGeometry>
        </mxCell>
        <mxCell id="uQ3wynb4Wp6j9YUOQWjD-38" value="if user selects a project" style="edgeLabel;html=1;align=center;verticalAlign=middle;resizable=0;points=[];" parent="uQ3wynb4Wp6j9YUOQWjD-20" vertex="1" connectable="0">
          <mxGeometry x="-0.0275" y="-4" relative="1" as="geometry">
            <mxPoint x="1" as="offset" />
          </mxGeometry>
        </mxCell>
        <mxCell id="9ISQ2U6gShZRYcZddjkD-17" value="Project 1" style="rounded=1;whiteSpace=wrap;html=1;" parent="1" vertex="1">
          <mxGeometry x="270" y="845" width="90" height="40" as="geometry" />
        </mxCell>
        <mxCell id="9ISQ2U6gShZRYcZddjkD-18" value="Project 2" style="rounded=1;whiteSpace=wrap;html=1;" parent="1" vertex="1">
          <mxGeometry x="370" y="845" width="90" height="40" as="geometry" />
        </mxCell>
        <mxCell id="9ISQ2U6gShZRYcZddjkD-19" value="&lt;font color=&quot;#fffafa&quot;&gt;&lt;span style=&quot;font-size: 8px;&quot;&gt;Notes&lt;br&gt;&lt;/span&gt;&lt;/font&gt;" style="text;html=1;strokeColor=none;fillColor=none;align=center;verticalAlign=middle;whiteSpace=wrap;rounded=0;" parent="1" vertex="1">
          <mxGeometry x="455" y="740" width="60" height="30" as="geometry" />
        </mxCell>
        <mxCell id="9ISQ2U6gShZRYcZddjkD-20" value="&lt;font color=&quot;#fffafa&quot;&gt;&lt;span style=&quot;font-size: 8px;&quot;&gt;Projects&lt;br&gt;&lt;/span&gt;&lt;/font&gt;" style="text;html=1;strokeColor=none;fillColor=none;align=center;verticalAlign=middle;whiteSpace=wrap;rounded=0;" parent="1" vertex="1">
          <mxGeometry x="360" y="740" width="60" height="30" as="geometry" />
        </mxCell>
        <mxCell id="uQ3wynb4Wp6j9YUOQWjD-2" style="edgeStyle=orthogonalEdgeStyle;rounded=0;orthogonalLoop=1;jettySize=auto;html=1;exitX=1;exitY=0.5;exitDx=0;exitDy=0;entryX=0.003;entryY=0.077;entryDx=0;entryDy=0;entryPerimeter=0;" parent="1" source="tBwf_EXNc8i-KZaqGDez-5" target="ts7k1Ihn8bTRgZbRFf7x-72" edge="1">
          <mxGeometry relative="1" as="geometry" />
        </mxCell>
        <mxCell id="uQ3wynb4Wp6j9YUOQWjD-3" value="If user selects Source" style="edgeLabel;html=1;align=center;verticalAlign=middle;resizable=0;points=[];" parent="uQ3wynb4Wp6j9YUOQWjD-2" vertex="1" connectable="0">
          <mxGeometry x="-0.6019" y="-1" relative="1" as="geometry">
            <mxPoint as="offset" />
          </mxGeometry>
        </mxCell>
        <mxCell id="uQ3wynb4Wp6j9YUOQWjD-4" value="&lt;font color=&quot;#fffafa&quot;&gt;&lt;span style=&quot;font-size: 8px;&quot;&gt;Projects&lt;br&gt;&lt;/span&gt;&lt;/font&gt;" style="text;html=1;strokeColor=none;fillColor=none;align=center;verticalAlign=middle;whiteSpace=wrap;rounded=0;" parent="1" vertex="1">
          <mxGeometry x="850" y="1245" width="60" height="30" as="geometry" />
        </mxCell>
        <mxCell id="uQ3wynb4Wp6j9YUOQWjD-5" value="&lt;font color=&quot;#fffafa&quot;&gt;&lt;span style=&quot;font-size: 8px;&quot;&gt;Projects&lt;br&gt;&lt;/span&gt;&lt;/font&gt;" style="text;html=1;strokeColor=none;fillColor=none;align=center;verticalAlign=middle;whiteSpace=wrap;rounded=0;" parent="1" vertex="1">
          <mxGeometry x="280" y="1250" width="60" height="30" as="geometry" />
        </mxCell>
        <mxCell id="uQ3wynb4Wp6j9YUOQWjD-6" value="&lt;font color=&quot;#fffafa&quot;&gt;&lt;span style=&quot;font-size: 8px;&quot;&gt;Projects&lt;br&gt;&lt;/span&gt;&lt;/font&gt;" style="text;html=1;strokeColor=none;fillColor=none;align=center;verticalAlign=middle;whiteSpace=wrap;rounded=0;" parent="1" vertex="1">
          <mxGeometry x="1422.5" y="770" width="60" height="30" as="geometry" />
        </mxCell>
        <mxCell id="uQ3wynb4Wp6j9YUOQWjD-10" value="" style="rounded=1;whiteSpace=wrap;html=1;" parent="1" vertex="1">
          <mxGeometry x="825" y="695" width="190" height="155" as="geometry" />
        </mxCell>
        <mxCell id="uQ3wynb4Wp6j9YUOQWjD-11" value="Create Project" style="text;html=1;strokeColor=none;fillColor=none;align=center;verticalAlign=middle;whiteSpace=wrap;rounded=0;" parent="1" vertex="1">
          <mxGeometry x="810" y="705" width="140" height="30" as="geometry" />
        </mxCell>
        <mxCell id="uQ3wynb4Wp6j9YUOQWjD-12" value="X" style="text;html=1;strokeColor=none;fillColor=none;align=center;verticalAlign=middle;whiteSpace=wrap;rounded=0;" parent="1" vertex="1">
          <mxGeometry x="957.5" y="705" width="60" height="30" as="geometry" />
        </mxCell>
        <mxCell id="uQ3wynb4Wp6j9YUOQWjD-14" value="&lt;font style=&quot;font-size: 7px;&quot;&gt;Project Title&lt;/font&gt;" style="text;html=1;strokeColor=none;fillColor=none;align=center;verticalAlign=middle;whiteSpace=wrap;rounded=0;" parent="1" vertex="1">
          <mxGeometry x="825" y="725" width="80" height="30" as="geometry" />
        </mxCell>
        <mxCell id="uQ3wynb4Wp6j9YUOQWjD-15" value="" style="rounded=1;whiteSpace=wrap;html=1;" parent="1" vertex="1">
          <mxGeometry x="845" y="747.5" width="155" height="10" as="geometry" />
        </mxCell>
        <mxCell id="uQ3wynb4Wp6j9YUOQWjD-16" value="&lt;font style=&quot;font-size: 7px;&quot;&gt;Project Description&lt;/font&gt;" style="text;html=1;strokeColor=none;fillColor=none;align=center;verticalAlign=middle;whiteSpace=wrap;rounded=0;" parent="1" vertex="1">
          <mxGeometry x="835" y="750" width="80" height="30" as="geometry" />
        </mxCell>
        <mxCell id="uQ3wynb4Wp6j9YUOQWjD-17" value="" style="rounded=1;whiteSpace=wrap;html=1;" parent="1" vertex="1">
          <mxGeometry x="842.5" y="772.5" width="155" height="32.5" as="geometry" />
        </mxCell>
        <mxCell id="uQ3wynb4Wp6j9YUOQWjD-18" value="&lt;font color=&quot;#ffffff&quot;&gt;Create&lt;/font&gt;" style="rounded=1;whiteSpace=wrap;html=1;fillColor=#3498DB;strokeColor=#FFFFFF;" parent="1" vertex="1">
          <mxGeometry x="842.5" y="815" width="53" height="20" as="geometry" />
        </mxCell>
        <mxCell id="uQ3wynb4Wp6j9YUOQWjD-21" value="" style="whiteSpace=wrap;html=1;aspect=fixed;" parent="1" vertex="1">
          <mxGeometry x="-310" y="932" width="430" height="430" as="geometry" />
        </mxCell>
        <mxCell id="uQ3wynb4Wp6j9YUOQWjD-22" value="" style="rounded=0;whiteSpace=wrap;html=1;fillColor=#3498db;strokeColor=#6c8ebf;" parent="1" vertex="1">
          <mxGeometry x="-310" y="932" width="430" height="40" as="geometry" />
        </mxCell>
        <mxCell id="uQ3wynb4Wp6j9YUOQWjD-23" value="&lt;font color=&quot;#fff7fe&quot;&gt;Capstone&lt;/font&gt;" style="text;html=1;strokeColor=none;fillColor=none;align=center;verticalAlign=middle;whiteSpace=wrap;rounded=0;" parent="1" vertex="1">
          <mxGeometry x="-310" y="937" width="60" height="30" as="geometry" />
        </mxCell>
        <mxCell id="uQ3wynb4Wp6j9YUOQWjD-24" value="&lt;font color=&quot;#ffffff&quot; style=&quot;font-size: 8px;&quot;&gt;Home&lt;/font&gt;" style="text;html=1;strokeColor=none;fillColor=none;align=center;verticalAlign=middle;whiteSpace=wrap;rounded=0;" parent="1" vertex="1">
          <mxGeometry x="-240" y="937" width="60" height="30" as="geometry" />
        </mxCell>
        <mxCell id="uQ3wynb4Wp6j9YUOQWjD-25" value="&lt;span style=&quot;font-size: 8px;&quot;&gt;&lt;font color=&quot;#fffafa&quot;&gt;Sources&lt;/font&gt;&lt;/span&gt;" style="text;html=1;strokeColor=none;fillColor=none;align=center;verticalAlign=middle;whiteSpace=wrap;rounded=0;" parent="1" vertex="1">
          <mxGeometry x="-125" y="937" width="60" height="30" as="geometry" />
        </mxCell>
        <mxCell id="uQ3wynb4Wp6j9YUOQWjD-26" value="&lt;font color=&quot;#ffffff&quot; style=&quot;font-size: 8px;&quot;&gt;Logout&lt;/font&gt;" style="text;html=1;strokeColor=none;fillColor=none;align=center;verticalAlign=middle;whiteSpace=wrap;rounded=0;" parent="1" vertex="1">
          <mxGeometry x="40" y="937" width="60" height="30" as="geometry" />
        </mxCell>
        <mxCell id="uQ3wynb4Wp6j9YUOQWjD-28" value="{{Project Title}}" style="text;html=1;strokeColor=none;fillColor=none;align=center;verticalAlign=middle;whiteSpace=wrap;rounded=0;" parent="1" vertex="1">
          <mxGeometry x="-310" y="982" width="100" height="30" as="geometry" />
        </mxCell>
        <mxCell id="uQ3wynb4Wp6j9YUOQWjD-29" value="" style="rounded=0;whiteSpace=wrap;html=1;fillColor=#333;" parent="1" vertex="1">
          <mxGeometry y="972" width="120" height="390" as="geometry" />
        </mxCell>
        <mxCell id="uQ3wynb4Wp6j9YUOQWjD-30" value="&lt;font color=&quot;#ffffff&quot;&gt;Sources&lt;/font&gt;" style="text;html=1;strokeColor=none;fillColor=none;align=center;verticalAlign=middle;whiteSpace=wrap;rounded=0;" parent="1" vertex="1">
          <mxGeometry x="15" y="979.5" width="60" height="30" as="geometry" />
        </mxCell>
        <mxCell id="uQ3wynb4Wp6j9YUOQWjD-31" value="" style="rounded=1;whiteSpace=wrap;html=1;fillColor=#3498db;strokeColor=none;" parent="1" vertex="1">
          <mxGeometry x="90" y="988.1300000000001" width="25" height="13.75" as="geometry" />
        </mxCell>
        <mxCell id="uQ3wynb4Wp6j9YUOQWjD-51" style="edgeStyle=orthogonalEdgeStyle;rounded=0;orthogonalLoop=1;jettySize=auto;html=1;exitX=0.5;exitY=1;exitDx=0;exitDy=0;" parent="1" source="uQ3wynb4Wp6j9YUOQWjD-32" edge="1">
          <mxGeometry relative="1" as="geometry">
            <mxPoint x="-250" y="1702.608695652174" as="targetPoint" />
          </mxGeometry>
        </mxCell>
        <mxCell id="uQ3wynb4Wp6j9YUOQWjD-61" value="User adding a&amp;nbsp; source to a project" style="edgeLabel;html=1;align=center;verticalAlign=middle;resizable=0;points=[];" parent="uQ3wynb4Wp6j9YUOQWjD-51" vertex="1" connectable="0">
          <mxGeometry x="0.6983" relative="1" as="geometry">
            <mxPoint as="offset" />
          </mxGeometry>
        </mxCell>
        <mxCell id="uQ3wynb4Wp6j9YUOQWjD-32" value="&lt;span style=&quot;font-size: 8px;&quot;&gt;&lt;font color=&quot;#ffffff&quot;&gt;Add&lt;/font&gt;&lt;/span&gt;" style="text;html=1;strokeColor=none;fillColor=none;align=left;verticalAlign=middle;whiteSpace=wrap;rounded=0;" parent="1" vertex="1">
          <mxGeometry x="95" y="979.5" width="30" height="30" as="geometry" />
        </mxCell>
        <mxCell id="uQ3wynb4Wp6j9YUOQWjD-33" value="March Madness" style="rounded=1;whiteSpace=wrap;html=1;fillColor=#F5F5F5;" parent="1" vertex="1">
          <mxGeometry y="1012" width="120" height="28" as="geometry" />
        </mxCell>
        <mxCell id="uQ3wynb4Wp6j9YUOQWjD-34" value="&lt;font color=&quot;#3498db&quot;&gt;X&lt;/font&gt;" style="text;html=1;strokeColor=none;fillColor=none;align=center;verticalAlign=middle;whiteSpace=wrap;rounded=0;" parent="1" vertex="1">
          <mxGeometry x="100" y="1012" width="20" height="16" as="geometry" />
        </mxCell>
        <mxCell id="uQ3wynb4Wp6j9YUOQWjD-36" value="&lt;font color=&quot;#fffafa&quot;&gt;&lt;span style=&quot;font-size: 8px;&quot;&gt;Notes&lt;br&gt;&lt;/span&gt;&lt;/font&gt;" style="text;html=1;strokeColor=none;fillColor=none;align=center;verticalAlign=middle;whiteSpace=wrap;rounded=0;" parent="1" vertex="1">
          <mxGeometry x="-60" y="935.75" width="60" height="30" as="geometry" />
        </mxCell>
        <mxCell id="uQ3wynb4Wp6j9YUOQWjD-37" value="&lt;font color=&quot;#fffafa&quot;&gt;&lt;span style=&quot;font-size: 8px;&quot;&gt;Projects&lt;br&gt;&lt;/span&gt;&lt;/font&gt;" style="text;html=1;strokeColor=none;fillColor=none;align=center;verticalAlign=middle;whiteSpace=wrap;rounded=0;" parent="1" vertex="1">
          <mxGeometry x="-190" y="937" width="60" height="30" as="geometry" />
        </mxCell>
        <mxCell id="uQ3wynb4Wp6j9YUOQWjD-39" value="{{Project Description}}" style="text;html=1;strokeColor=none;fillColor=none;align=center;verticalAlign=middle;whiteSpace=wrap;rounded=0;" parent="1" vertex="1">
          <mxGeometry x="-300" y="1001.88" width="120" height="30" as="geometry" />
        </mxCell>
        <mxCell id="uQ3wynb4Wp6j9YUOQWjD-40" value="&lt;div style=&quot;font-size: 6px;&quot;&gt;&lt;p&gt;Title: March madness&lt;/p&gt;&lt;p&gt;Author: HardWood&lt;/p&gt;&lt;p&gt;Publisher: Youtube&lt;/p&gt;&lt;p&gt;Published: 2024&lt;/p&gt;&lt;/div&gt;" style="rounded=1;whiteSpace=wrap;html=1;align=left;" parent="1" vertex="1">
          <mxGeometry x="-300" y="1038" width="290" height="62" as="geometry" />
        </mxCell>
        <mxCell id="uQ3wynb4Wp6j9YUOQWjD-42" value="&lt;font color=&quot;#ffffff&quot;&gt;Delete&lt;/font&gt;" style="rounded=1;whiteSpace=wrap;html=1;fillColor=#3498DB;strokeColor=#FFFFFF;" parent="1" vertex="1">
          <mxGeometry x="-113" y="981.88" width="53" height="20" as="geometry" />
        </mxCell>
        <mxCell id="uQ3wynb4Wp6j9YUOQWjD-44" style="edgeStyle=orthogonalEdgeStyle;rounded=0;orthogonalLoop=1;jettySize=auto;html=1;exitX=0.75;exitY=1;exitDx=0;exitDy=0;" parent="1" source="uQ3wynb4Wp6j9YUOQWjD-43" edge="1">
          <mxGeometry relative="1" as="geometry">
            <mxPoint x="-750" y="954" as="targetPoint" />
            <mxPoint x="-20" y="1076" as="sourcePoint" />
          </mxGeometry>
        </mxCell>
        <mxCell id="uQ3wynb4Wp6j9YUOQWjD-50" value="Export dialog" style="edgeLabel;html=1;align=center;verticalAlign=middle;resizable=0;points=[];" parent="uQ3wynb4Wp6j9YUOQWjD-44" vertex="1" connectable="0">
          <mxGeometry x="0.0524" relative="1" as="geometry">
            <mxPoint as="offset" />
          </mxGeometry>
        </mxCell>
        <mxCell id="uQ3wynb4Wp6j9YUOQWjD-43" value="&lt;font color=&quot;#ffffff&quot;&gt;Export&lt;/font&gt;" style="rounded=1;whiteSpace=wrap;html=1;fillColor=#3498DB;strokeColor=#FFFFFF;" parent="1" vertex="1">
          <mxGeometry x="-56.5" y="982" width="53" height="20" as="geometry" />
        </mxCell>
        <mxCell id="uQ3wynb4Wp6j9YUOQWjD-46" value="" style="rounded=1;whiteSpace=wrap;html=1;" parent="1" vertex="1">
          <mxGeometry x="-860" y="680.5" width="210" height="279.5" as="geometry" />
        </mxCell>
        <mxCell id="uQ3wynb4Wp6j9YUOQWjD-47" value="&lt;font color=&quot;#3498db&quot;&gt;X&lt;/font&gt;" style="text;html=1;strokeColor=none;fillColor=none;align=center;verticalAlign=middle;whiteSpace=wrap;rounded=0;" parent="1" vertex="1">
          <mxGeometry x="-700" y="700" width="20" height="16" as="geometry" />
        </mxCell>
        <mxCell id="uQ3wynb4Wp6j9YUOQWjD-48" value="Export Source" style="text;html=1;strokeColor=none;fillColor=none;align=center;verticalAlign=middle;whiteSpace=wrap;rounded=0;" parent="1" vertex="1">
          <mxGeometry x="-850" y="693" width="100" height="30" as="geometry" />
        </mxCell>
        <mxCell id="uQ3wynb4Wp6j9YUOQWjD-49" value="&lt;p style=&quot;font-size: 11px;&quot;&gt;&lt;font style=&quot;font-size: 11px;&quot;&gt;@Source{ March madness &lt;br&gt; SourceId = 2,&lt;br&gt; Description = ,&lt;br&gt; Name = March madness,&lt;br&gt; Content = {&quot;url&quot;:&quot;https://www.youtube.com/watch?v=0ETL3yBlNs8&quot;,&quot;file&quot;:&quot;&quot;},&lt;br&gt; Author = HardWood,&lt;br&gt; Publisher = Youtube,&lt;br&gt; PublishYear = 2024,&lt;br&gt; CreatedBy = Corey124,&lt;br&gt;&lt;/font&gt;&lt;/p&gt;&lt;font style=&quot;font-size: 11px;&quot;&gt;}&amp;nbsp;&lt;/font&gt;" style="text;html=1;strokeColor=none;fillColor=none;align=left;verticalAlign=middle;whiteSpace=wrap;rounded=0;" parent="1" vertex="1">
          <mxGeometry x="-850" y="747.5" width="180" height="130" as="geometry" />
        </mxCell>
        <mxCell id="uQ3wynb4Wp6j9YUOQWjD-52" value="" style="rounded=1;whiteSpace=wrap;html=1;" parent="1" vertex="1">
          <mxGeometry x="-350" y="1701.5" width="210" height="282" as="geometry" />
        </mxCell>
        <mxCell id="uQ3wynb4Wp6j9YUOQWjD-53" value="Add Source" style="text;html=1;strokeColor=none;fillColor=none;align=center;verticalAlign=middle;whiteSpace=wrap;rounded=0;" parent="1" vertex="1">
          <mxGeometry x="-350" y="1715" width="110" height="30" as="geometry" />
        </mxCell>
        <mxCell id="uQ3wynb4Wp6j9YUOQWjD-54" value="&lt;font color=&quot;#3498db&quot;&gt;X&lt;/font&gt;" style="text;html=1;strokeColor=none;fillColor=none;align=center;verticalAlign=middle;whiteSpace=wrap;rounded=0;" parent="1" vertex="1">
          <mxGeometry x="-180" y="1721.5" width="20" height="16" as="geometry" />
        </mxCell>
        <mxCell id="uQ3wynb4Wp6j9YUOQWjD-55" value="" style="rounded=1;whiteSpace=wrap;html=1;" parent="1" vertex="1">
          <mxGeometry x="-340" y="1753" width="190" height="37" as="geometry" />
        </mxCell>
        <mxCell id="uQ3wynb4Wp6j9YUOQWjD-56" value="" style="rounded=0;whiteSpace=wrap;html=1;" parent="1" vertex="1">
          <mxGeometry x="-330" y="1766.5" width="10" height="10" as="geometry" />
        </mxCell>
        <mxCell id="uQ3wynb4Wp6j9YUOQWjD-57" value="Source 1" style="text;html=1;strokeColor=none;fillColor=none;align=center;verticalAlign=middle;whiteSpace=wrap;rounded=0;" parent="1" vertex="1">
          <mxGeometry x="-345" y="1756.5" width="130" height="30" as="geometry" />
        </mxCell>
        <mxCell id="uQ3wynb4Wp6j9YUOQWjD-58" value="" style="endArrow=none;html=1;rounded=0;" parent="1" edge="1">
          <mxGeometry width="50" height="50" relative="1" as="geometry">
            <mxPoint x="-345" y="1805" as="sourcePoint" />
            <mxPoint x="-145" y="1805" as="targetPoint" />
          </mxGeometry>
        </mxCell>
        <mxCell id="uQ3wynb4Wp6j9YUOQWjD-59" value="&lt;font color=&quot;#ffffff&quot;&gt;Add&lt;/font&gt;" style="rounded=1;whiteSpace=wrap;html=1;fillColor=#3498DB;strokeColor=#FFFFFF;" parent="1" vertex="1">
          <mxGeometry x="-330" y="1830" width="53" height="20" as="geometry" />
        </mxCell>
        <mxCell id="uQ3wynb4Wp6j9YUOQWjD-60" value="&lt;font color=&quot;#ffffff&quot;&gt;Cancel&lt;/font&gt;" style="rounded=1;whiteSpace=wrap;html=1;fillColor=#3498DB;strokeColor=#FFFFFF;" parent="1" vertex="1">
          <mxGeometry x="-213" y="1830" width="53" height="20" as="geometry" />
        </mxCell>
        <mxCell id="uQ3wynb4Wp6j9YUOQWjD-64" value="" style="rounded=1;whiteSpace=wrap;html=1;" parent="1" vertex="1">
          <mxGeometry x="987.5" y="927" width="255" height="176" as="geometry" />
        </mxCell>
        <mxCell id="uQ3wynb4Wp6j9YUOQWjD-65" value="Note Title" style="text;html=1;strokeColor=none;fillColor=none;align=center;verticalAlign=middle;whiteSpace=wrap;rounded=0;" parent="1" vertex="1">
          <mxGeometry x="1000" y="942" width="60" height="30" as="geometry" />
        </mxCell>
        <mxCell id="uQ3wynb4Wp6j9YUOQWjD-66" value="Note Desc" style="text;html=1;strokeColor=none;fillColor=none;align=center;verticalAlign=middle;whiteSpace=wrap;rounded=0;" parent="1" vertex="1">
          <mxGeometry x="997.5" y="972" width="102.5" height="30" as="geometry" />
        </mxCell>
        <mxCell id="uQ3wynb4Wp6j9YUOQWjD-67" value="Tags" style="text;html=1;strokeColor=none;fillColor=none;align=center;verticalAlign=middle;whiteSpace=wrap;rounded=0;" parent="1" vertex="1">
          <mxGeometry x="995" y="1042" width="60" height="30" as="geometry" />
        </mxCell>
        <mxCell id="uQ3wynb4Wp6j9YUOQWjD-70" style="edgeStyle=orthogonalEdgeStyle;rounded=0;orthogonalLoop=1;jettySize=auto;html=1;exitX=0.75;exitY=0;exitDx=0;exitDy=0;" parent="1" source="uQ3wynb4Wp6j9YUOQWjD-68" edge="1">
          <mxGeometry relative="1" as="geometry">
            <mxPoint x="1150" y="650" as="targetPoint" />
          </mxGeometry>
        </mxCell>
        <mxCell id="uQ3wynb4Wp6j9YUOQWjD-78" value="Adding a tag to a note" style="edgeLabel;html=1;align=center;verticalAlign=middle;resizable=0;points=[];" parent="uQ3wynb4Wp6j9YUOQWjD-70" vertex="1" connectable="0">
          <mxGeometry x="0.6201" relative="1" as="geometry">
            <mxPoint as="offset" />
          </mxGeometry>
        </mxCell>
        <mxCell id="uQ3wynb4Wp6j9YUOQWjD-68" value="&lt;font color=&quot;#ffffff&quot;&gt;Add&lt;/font&gt;" style="rounded=1;whiteSpace=wrap;html=1;fillColor=#3498DB;strokeColor=#FFFFFF;" parent="1" vertex="1">
          <mxGeometry x="1040" y="1047" width="40" height="20" as="geometry" />
        </mxCell>
        <mxCell id="uQ3wynb4Wp6j9YUOQWjD-69" value="&lt;font color=&quot;#ffffff&quot;&gt;Tag 1 X&lt;/font&gt;" style="rounded=1;whiteSpace=wrap;html=1;fillColor=#3498DB;strokeColor=#FFFFFF;" parent="1" vertex="1">
          <mxGeometry x="1015" y="1072" width="45" height="20" as="geometry" />
        </mxCell>
        <mxCell id="uQ3wynb4Wp6j9YUOQWjD-71" value="" style="rounded=0;whiteSpace=wrap;html=1;" parent="1" vertex="1">
          <mxGeometry x="1015" y="560" width="280" height="90" as="geometry" />
        </mxCell>
        <mxCell id="uQ3wynb4Wp6j9YUOQWjD-72" value="Add Tag" style="text;html=1;strokeColor=none;fillColor=none;align=center;verticalAlign=middle;whiteSpace=wrap;rounded=0;" parent="1" vertex="1">
          <mxGeometry x="1015" y="560" width="75" height="30" as="geometry" />
        </mxCell>
        <mxCell id="uQ3wynb4Wp6j9YUOQWjD-73" value="&lt;font color=&quot;#3498db&quot;&gt;X&lt;/font&gt;" style="text;html=1;strokeColor=none;fillColor=none;align=center;verticalAlign=middle;whiteSpace=wrap;rounded=0;" parent="1" vertex="1">
          <mxGeometry x="1207.5" y="935.75" width="20" height="16" as="geometry" />
        </mxCell>
        <mxCell id="uQ3wynb4Wp6j9YUOQWjD-74" value="&lt;font color=&quot;#3498db&quot;&gt;X&lt;/font&gt;" style="text;html=1;strokeColor=none;fillColor=none;align=center;verticalAlign=middle;whiteSpace=wrap;rounded=0;" parent="1" vertex="1">
          <mxGeometry x="1265" y="567" width="20" height="16" as="geometry" />
        </mxCell>
        <mxCell id="uQ3wynb4Wp6j9YUOQWjD-75" value="" style="rounded=1;whiteSpace=wrap;html=1;" parent="1" vertex="1">
          <mxGeometry x="1030" y="590.5" width="220" height="15" as="geometry" />
        </mxCell>
        <mxCell id="uQ3wynb4Wp6j9YUOQWjD-76" value="&lt;font color=&quot;#ffffff&quot;&gt;Add&lt;/font&gt;" style="rounded=1;whiteSpace=wrap;html=1;fillColor=#3498DB;strokeColor=#FFFFFF;" parent="1" vertex="1">
          <mxGeometry x="1220" y="617.5" width="53" height="20" as="geometry" />
        </mxCell>
        <mxCell id="VZ_U6HganjTYNZHKfubw-2" style="edgeStyle=orthogonalEdgeStyle;rounded=0;orthogonalLoop=1;jettySize=auto;html=1;exitX=0.5;exitY=0;exitDx=0;exitDy=0;" edge="1" parent="1" source="VZ_U6HganjTYNZHKfubw-1">
          <mxGeometry relative="1" as="geometry">
            <mxPoint x="4200" y="570" as="targetPoint" />
          </mxGeometry>
        </mxCell>
        <mxCell id="VZ_U6HganjTYNZHKfubw-55" value="Project page" style="edgeLabel;html=1;align=center;verticalAlign=middle;resizable=0;points=[];" vertex="1" connectable="0" parent="VZ_U6HganjTYNZHKfubw-2">
          <mxGeometry x="-0.1579" y="-3" relative="1" as="geometry">
            <mxPoint as="offset" />
          </mxGeometry>
        </mxCell>
        <mxCell id="VZ_U6HganjTYNZHKfubw-1" value="&lt;span style=&quot;font-size: 8px;&quot;&gt;&lt;font color=&quot;#fffafa&quot;&gt;Projects&lt;/font&gt;&lt;/span&gt;" style="text;html=1;strokeColor=none;fillColor=none;align=center;verticalAlign=middle;whiteSpace=wrap;rounded=0;" vertex="1" parent="1">
          <mxGeometry x="3644.38" y="705" width="60" height="30" as="geometry" />
        </mxCell>
        <mxCell id="VZ_U6HganjTYNZHKfubw-3" value="" style="whiteSpace=wrap;html=1;aspect=fixed;" vertex="1" parent="1">
          <mxGeometry x="4030" y="132.5" width="440" height="440" as="geometry" />
        </mxCell>
        <mxCell id="VZ_U6HganjTYNZHKfubw-4" value="" style="rounded=0;whiteSpace=wrap;html=1;fillColor=#3498db;strokeColor=#6c8ebf;" vertex="1" parent="1">
          <mxGeometry x="4030" y="132.5" width="440" height="40" as="geometry" />
        </mxCell>
        <mxCell id="VZ_U6HganjTYNZHKfubw-6" value="&lt;font color=&quot;#ffffff&quot; style=&quot;font-size: 8px;&quot;&gt;Logout&lt;/font&gt;" style="text;html=1;strokeColor=none;fillColor=none;align=center;verticalAlign=middle;whiteSpace=wrap;rounded=0;" vertex="1" parent="1">
          <mxGeometry x="4397.5" y="137.5" width="60" height="30" as="geometry" />
        </mxCell>
        <mxCell id="VZ_U6HganjTYNZHKfubw-8" value="" style="rounded=1;whiteSpace=wrap;html=1;" vertex="1" parent="1">
          <mxGeometry x="4060" y="257.5" width="370" height="255" as="geometry" />
        </mxCell>
        <mxCell id="VZ_U6HganjTYNZHKfubw-9" value="&lt;font color=&quot;#ebfffa&quot;&gt;Add&lt;/font&gt;" style="rounded=1;whiteSpace=wrap;html=1;strokeColor=#3498db;fillStyle=solid;fillColor=#3498DB;" vertex="1" parent="1">
          <mxGeometry x="4370" y="227.5" width="50" height="20" as="geometry" />
        </mxCell>
        <mxCell id="VZ_U6HganjTYNZHKfubw-10" value="&lt;span style=&quot;font-size: 8px;&quot;&gt;Project 1&lt;/span&gt;" style="rounded=1;whiteSpace=wrap;html=1;align=left;" vertex="1" parent="1">
          <mxGeometry x="4080" y="282.5" width="330" height="20" as="geometry" />
        </mxCell>
        <mxCell id="VZ_U6HganjTYNZHKfubw-11" value="&lt;span style=&quot;font-size: 8px;&quot;&gt;Project 2&lt;/span&gt;" style="rounded=1;whiteSpace=wrap;html=1;align=left;" vertex="1" parent="1">
          <mxGeometry x="4078.75" y="312.5" width="330" height="20" as="geometry" />
        </mxCell>
        <mxCell id="VZ_U6HganjTYNZHKfubw-13" value="&lt;span style=&quot;font-size: 8px;&quot;&gt;&lt;font color=&quot;#fffafa&quot;&gt;Home&lt;/font&gt;&lt;/span&gt;" style="text;html=1;strokeColor=none;fillColor=none;align=center;verticalAlign=middle;whiteSpace=wrap;rounded=0;" vertex="1" parent="1">
          <mxGeometry x="4030" y="137.5" width="60" height="30" as="geometry" />
        </mxCell>
        <mxCell id="VZ_U6HganjTYNZHKfubw-14" value="" style="whiteSpace=wrap;html=1;aspect=fixed;" vertex="1" parent="1">
          <mxGeometry x="4632.5" y="113" width="440" height="440" as="geometry" />
        </mxCell>
        <mxCell id="VZ_U6HganjTYNZHKfubw-15" value="" style="rounded=0;whiteSpace=wrap;html=1;fillColor=#3498db;strokeColor=#6c8ebf;" vertex="1" parent="1">
          <mxGeometry x="4632.5" y="113" width="440" height="40" as="geometry" />
        </mxCell>
        <mxCell id="VZ_U6HganjTYNZHKfubw-16" value="&lt;font color=&quot;#ffffff&quot; style=&quot;font-size: 8px;&quot;&gt;Logout&lt;/font&gt;" style="text;html=1;strokeColor=none;fillColor=none;align=center;verticalAlign=middle;whiteSpace=wrap;rounded=0;" vertex="1" parent="1">
          <mxGeometry x="5000" y="118" width="60" height="30" as="geometry" />
        </mxCell>
        <mxCell id="VZ_U6HganjTYNZHKfubw-17" value="" style="rounded=1;whiteSpace=wrap;html=1;" vertex="1" parent="1">
          <mxGeometry x="4662.5" y="238" width="370" height="255" as="geometry" />
        </mxCell>
        <mxCell id="VZ_U6HganjTYNZHKfubw-18" value="&lt;font color=&quot;#ebfffa&quot;&gt;Remove&lt;/font&gt;" style="rounded=1;whiteSpace=wrap;html=1;strokeColor=#3498db;fillStyle=solid;fillColor=#3498DB;" vertex="1" parent="1">
          <mxGeometry x="4867.5" y="210" width="50" height="20" as="geometry" />
        </mxCell>
        <mxCell id="VZ_U6HganjTYNZHKfubw-19" value="&lt;span style=&quot;font-size: 8px;&quot;&gt;Source 1&lt;/span&gt;" style="rounded=1;whiteSpace=wrap;html=1;align=left;" vertex="1" parent="1">
          <mxGeometry x="4682.5" y="263" width="330" height="20" as="geometry" />
        </mxCell>
        <mxCell id="VZ_U6HganjTYNZHKfubw-21" value="&lt;span style=&quot;font-size: 8px;&quot;&gt;&lt;font color=&quot;#fffafa&quot;&gt;Home&lt;/font&gt;&lt;/span&gt;" style="text;html=1;strokeColor=none;fillColor=none;align=center;verticalAlign=middle;whiteSpace=wrap;rounded=0;" vertex="1" parent="1">
          <mxGeometry x="4632.5" y="118" width="60" height="30" as="geometry" />
        </mxCell>
        <mxCell id="VZ_U6HganjTYNZHKfubw-22" style="edgeStyle=orthogonalEdgeStyle;rounded=0;orthogonalLoop=1;jettySize=auto;html=1;exitX=1;exitY=0.5;exitDx=0;exitDy=0;entryX=-0.004;entryY=0.449;entryDx=0;entryDy=0;entryPerimeter=0;" edge="1" parent="1" source="VZ_U6HganjTYNZHKfubw-10" target="VZ_U6HganjTYNZHKfubw-14">
          <mxGeometry relative="1" as="geometry" />
        </mxCell>
        <mxCell id="VZ_U6HganjTYNZHKfubw-57" value="Clicking on a project" style="edgeLabel;html=1;align=center;verticalAlign=middle;resizable=0;points=[];" vertex="1" connectable="0" parent="VZ_U6HganjTYNZHKfubw-22">
          <mxGeometry x="-0.1541" y="3" relative="1" as="geometry">
            <mxPoint as="offset" />
          </mxGeometry>
        </mxCell>
        <mxCell id="VZ_U6HganjTYNZHKfubw-23" value="&lt;font color=&quot;#ebfffa&quot;&gt;Add&lt;/font&gt;" style="rounded=1;whiteSpace=wrap;html=1;strokeColor=#3498db;fillStyle=solid;fillColor=#3498DB;" vertex="1" parent="1">
          <mxGeometry x="4930" y="210" width="50" height="20" as="geometry" />
        </mxCell>
        <mxCell id="VZ_U6HganjTYNZHKfubw-43" style="edgeStyle=orthogonalEdgeStyle;rounded=0;orthogonalLoop=1;jettySize=auto;html=1;exitX=0.5;exitY=0;exitDx=0;exitDy=0;" edge="1" parent="1" source="VZ_U6HganjTYNZHKfubw-25">
          <mxGeometry relative="1" as="geometry">
            <mxPoint x="5030" y="-80" as="targetPoint" />
          </mxGeometry>
        </mxCell>
        <mxCell id="VZ_U6HganjTYNZHKfubw-50" value="Export Source" style="edgeLabel;html=1;align=center;verticalAlign=middle;resizable=0;points=[];" vertex="1" connectable="0" parent="VZ_U6HganjTYNZHKfubw-43">
          <mxGeometry x="0.3676" y="-2" relative="1" as="geometry">
            <mxPoint as="offset" />
          </mxGeometry>
        </mxCell>
        <mxCell id="VZ_U6HganjTYNZHKfubw-25" value="&lt;font color=&quot;#ebfffa&quot;&gt;Export&lt;/font&gt;" style="rounded=1;whiteSpace=wrap;html=1;strokeColor=#3498db;fillStyle=solid;fillColor=#3498DB;" vertex="1" parent="1">
          <mxGeometry x="4990" y="210" width="50" height="20" as="geometry" />
        </mxCell>
        <mxCell id="VZ_U6HganjTYNZHKfubw-27" value="" style="rounded=1;whiteSpace=wrap;html=1;" vertex="1" parent="1">
          <mxGeometry x="4270" y="-260" width="220" height="230" as="geometry" />
        </mxCell>
        <mxCell id="VZ_U6HganjTYNZHKfubw-28" value="New Project" style="text;html=1;strokeColor=none;fillColor=none;align=center;verticalAlign=middle;whiteSpace=wrap;rounded=0;" vertex="1" parent="1">
          <mxGeometry x="4310" y="-240" width="140" height="30" as="geometry" />
        </mxCell>
        <mxCell id="VZ_U6HganjTYNZHKfubw-29" value="" style="rounded=0;whiteSpace=wrap;html=1;" vertex="1" parent="1">
          <mxGeometry x="4290" y="-190" width="180" height="12" as="geometry" />
        </mxCell>
        <mxCell id="VZ_U6HganjTYNZHKfubw-30" value="" style="rounded=0;whiteSpace=wrap;html=1;" vertex="1" parent="1">
          <mxGeometry x="4290" y="-147" width="180" height="60" as="geometry" />
        </mxCell>
        <mxCell id="VZ_U6HganjTYNZHKfubw-31" value="Name" style="text;html=1;strokeColor=none;fillColor=none;align=center;verticalAlign=middle;whiteSpace=wrap;rounded=0;" vertex="1" parent="1">
          <mxGeometry x="4280" y="-220" width="60" height="30" as="geometry" />
        </mxCell>
        <mxCell id="VZ_U6HganjTYNZHKfubw-32" value="Description" style="text;html=1;strokeColor=none;fillColor=none;align=center;verticalAlign=middle;whiteSpace=wrap;rounded=0;" vertex="1" parent="1">
          <mxGeometry x="4290" y="-178" width="60" height="30" as="geometry" />
        </mxCell>
        <mxCell id="VZ_U6HganjTYNZHKfubw-33" value="&lt;font color=&quot;#ebfffa&quot;&gt;Submit&lt;/font&gt;" style="rounded=1;whiteSpace=wrap;html=1;strokeColor=#3498db;fillStyle=solid;fillColor=#3498DB;" vertex="1" parent="1">
          <mxGeometry x="4340" y="-70" width="60" height="20" as="geometry" />
        </mxCell>
        <mxCell id="VZ_U6HganjTYNZHKfubw-35" style="edgeStyle=orthogonalEdgeStyle;rounded=0;orthogonalLoop=1;jettySize=auto;html=1;exitX=0.5;exitY=0;exitDx=0;exitDy=0;entryX=0.593;entryY=1.011;entryDx=0;entryDy=0;entryPerimeter=0;" edge="1" parent="1" source="VZ_U6HganjTYNZHKfubw-9" target="VZ_U6HganjTYNZHKfubw-27">
          <mxGeometry relative="1" as="geometry" />
        </mxCell>
        <mxCell id="VZ_U6HganjTYNZHKfubw-56" value="Creating a project" style="edgeLabel;html=1;align=center;verticalAlign=middle;resizable=0;points=[];" vertex="1" connectable="0" parent="VZ_U6HganjTYNZHKfubw-35">
          <mxGeometry x="0.5304" y="-4" relative="1" as="geometry">
            <mxPoint as="offset" />
          </mxGeometry>
        </mxCell>
        <mxCell id="VZ_U6HganjTYNZHKfubw-37" value="" style="rounded=1;whiteSpace=wrap;html=1;" vertex="1" parent="1">
          <mxGeometry x="5300" y="65" width="500" height="405" as="geometry" />
        </mxCell>
        <mxCell id="VZ_U6HganjTYNZHKfubw-38" value="" style="rounded=0;whiteSpace=wrap;html=1;" vertex="1" parent="1">
          <mxGeometry x="5385" y="155.5" width="330" height="224" as="geometry" />
        </mxCell>
        <mxCell id="VZ_U6HganjTYNZHKfubw-39" value="&lt;font color=&quot;#ebfffa&quot;&gt;Add&lt;/font&gt;" style="rounded=1;whiteSpace=wrap;html=1;strokeColor=#3498db;fillStyle=solid;fillColor=#3498DB;" vertex="1" parent="1">
          <mxGeometry x="5530" y="410" width="50" height="20" as="geometry" />
        </mxCell>
        <mxCell id="VZ_U6HganjTYNZHKfubw-40" value="Select Sources To Add" style="text;html=1;strokeColor=none;fillColor=none;align=center;verticalAlign=middle;whiteSpace=wrap;rounded=0;" vertex="1" parent="1">
          <mxGeometry x="5450" y="118" width="200" height="30" as="geometry" />
        </mxCell>
        <mxCell id="VZ_U6HganjTYNZHKfubw-41" value="&lt;span style=&quot;font-size: 8px;&quot;&gt;Source 2&lt;/span&gt;" style="rounded=1;whiteSpace=wrap;html=1;align=left;" vertex="1" parent="1">
          <mxGeometry x="5395" y="167.5" width="310" height="20" as="geometry" />
        </mxCell>
        <mxCell id="VZ_U6HganjTYNZHKfubw-42" style="edgeStyle=orthogonalEdgeStyle;rounded=0;orthogonalLoop=1;jettySize=auto;html=1;exitX=0.5;exitY=0;exitDx=0;exitDy=0;entryX=-0.006;entryY=0.313;entryDx=0;entryDy=0;entryPerimeter=0;" edge="1" parent="1" source="VZ_U6HganjTYNZHKfubw-23" target="VZ_U6HganjTYNZHKfubw-37">
          <mxGeometry relative="1" as="geometry" />
        </mxCell>
        <mxCell id="VZ_U6HganjTYNZHKfubw-52" value="Adding source" style="edgeLabel;html=1;align=center;verticalAlign=middle;resizable=0;points=[];" vertex="1" connectable="0" parent="VZ_U6HganjTYNZHKfubw-42">
          <mxGeometry x="0.0797" y="1" relative="1" as="geometry">
            <mxPoint as="offset" />
          </mxGeometry>
        </mxCell>
        <mxCell id="VZ_U6HganjTYNZHKfubw-46" value="" style="rounded=1;whiteSpace=wrap;html=1;" vertex="1" parent="1">
          <mxGeometry x="4930" y="-364.75" width="210" height="279.5" as="geometry" />
        </mxCell>
        <mxCell id="VZ_U6HganjTYNZHKfubw-47" value="&lt;font color=&quot;#3498db&quot;&gt;X&lt;/font&gt;" style="text;html=1;strokeColor=none;fillColor=none;align=center;verticalAlign=middle;whiteSpace=wrap;rounded=0;" vertex="1" parent="1">
          <mxGeometry x="5090" y="-350.5" width="20" height="16" as="geometry" />
        </mxCell>
        <mxCell id="VZ_U6HganjTYNZHKfubw-48" value="Export Source" style="text;html=1;strokeColor=none;fillColor=none;align=center;verticalAlign=middle;whiteSpace=wrap;rounded=0;" vertex="1" parent="1">
          <mxGeometry x="4940" y="-357.5" width="100" height="30" as="geometry" />
        </mxCell>
        <mxCell id="VZ_U6HganjTYNZHKfubw-49" value="&lt;p style=&quot;font-size: 11px;&quot;&gt;&lt;font style=&quot;font-size: 11px;&quot;&gt;@Source{ March madness &lt;br&gt; SourceId = 2,&lt;br&gt; Description = ,&lt;br&gt; Name = March madness,&lt;br&gt; Content = {&quot;url&quot;:&quot;https://www.youtube.com/watch?v=0ETL3yBlNs8&quot;,&quot;file&quot;:&quot;&quot;},&lt;br&gt; Author = HardWood,&lt;br&gt; Publisher = Youtube,&lt;br&gt; PublishYear = 2024,&lt;br&gt; CreatedBy = Corey124,&lt;br&gt;&lt;/font&gt;&lt;/p&gt;&lt;font style=&quot;font-size: 11px;&quot;&gt;}&amp;nbsp;&lt;/font&gt;" style="text;html=1;strokeColor=none;fillColor=none;align=left;verticalAlign=middle;whiteSpace=wrap;rounded=0;" vertex="1" parent="1">
          <mxGeometry x="4940" y="-303" width="180" height="130" as="geometry" />
        </mxCell>
        <mxCell id="VZ_U6HganjTYNZHKfubw-53" value="&lt;span style=&quot;font-size: 8px;&quot;&gt;&lt;font color=&quot;#fffafa&quot;&gt;Projects&lt;/font&gt;&lt;/span&gt;" style="text;html=1;strokeColor=none;fillColor=none;align=center;verticalAlign=middle;whiteSpace=wrap;rounded=0;" vertex="1" parent="1">
          <mxGeometry x="4160" y="695" width="60" height="30" as="geometry" />
        </mxCell>
        <mxCell id="VZ_U6HganjTYNZHKfubw-54" value="&lt;span style=&quot;font-size: 8px;&quot;&gt;&lt;font color=&quot;#fffafa&quot;&gt;Projects&lt;/font&gt;&lt;/span&gt;" style="text;html=1;strokeColor=none;fillColor=none;align=center;verticalAlign=middle;whiteSpace=wrap;rounded=0;" vertex="1" parent="1">
          <mxGeometry x="4572.5" y="1542.5" width="60" height="30" as="geometry" />
        </mxCell>
      </root>
    </mxGraphModel>
  </diagram>
</mxfile>
